<svg version="1.1" id="Layer_1" xmlns="http://www.w3.org/2000/svg" xmlns:xlink="http://www.w3.org/1999/xlink" x="0px" y="0px"
	 width="100%" viewBox="0 0 500 500" enable-background="new 0 0 500 500" xml:space="preserve">
<path fill="#000000" opacity="1.000000" stroke="none" 
	d="
M328.000000,501.000000 
	C218.666687,501.000000 109.833382,501.000000 1.000058,501.000000 
	C1.000039,334.333405 1.000039,167.666794 1.000019,1.000148 
	C167.666565,1.000099 334.333130,1.000099 500.999756,1.000049 
	C500.999847,167.666519 500.999847,334.333038 500.999939,500.999786 
	C443.500000,501.000000 386.000000,501.000000 328.000000,501.000000 
M204.645447,146.033829 
	C204.841995,145.721085 205.038528,145.408340 205.841934,144.842010 
	C208.175812,142.550842 210.509705,140.259674 213.265930,137.403702 
	C217.544952,134.382172 221.823990,131.360641 226.863556,128.156326 
	C230.247253,126.782730 233.630951,125.409126 237.793655,123.977310 
	C244.873398,122.311211 251.953156,120.645111 259.965546,118.984665 
	C278.963989,118.907005 302.146027,123.000229 308.400238,127.366905 
	C290.922089,113.915527 271.021149,108.285515 248.168381,109.039024 
	C240.602829,110.346581 233.037262,111.654129 224.594650,112.955734 
	C221.243576,114.256844 217.892487,115.557953 213.833771,116.889061 
	C207.022049,120.830284 200.210327,124.771507 192.742355,128.756027 
	C189.482620,131.805145 186.222885,134.854263 182.310791,138.098068 
	C179.811035,141.208221 177.311279,144.318390 174.236572,147.744949 
	C173.411575,149.176514 172.586578,150.608093 171.288849,152.371887 
	C171.119598,152.713409 170.950333,153.054932 170.174362,153.781677 
	C168.395447,157.378265 166.616516,160.974854 165.230423,163.777222 
	C168.624084,166.388580 171.297272,168.445541 174.039322,170.371460 
	C174.039322,170.371460 174.050598,170.357986 174.086716,170.692474 
	C174.086716,170.692474 174.338242,170.915863 174.470352,171.624084 
	C176.749466,176.963608 179.028580,182.303116 181.307693,187.642639 
	C181.660797,187.628876 182.013916,187.615128 182.367035,187.601364 
	C182.884644,184.742798 183.402252,181.884232 184.213089,178.496918 
	C185.495438,175.661957 186.777786,172.827011 188.276566,169.846756 
	C188.276566,169.846756 188.205902,169.595825 188.763153,169.263199 
	C189.090820,168.502213 189.418503,167.741211 190.129211,166.380493 
	C191.129471,164.237671 192.129715,162.094849 193.520340,159.418808 
	C196.754395,155.336853 199.988464,151.254898 203.130188,147.139847 
	C203.130188,147.139847 203.137970,147.237625 203.662216,147.046036 
	C203.845612,146.733902 204.029007,146.421783 204.095612,146.092850 
	C204.095612,146.092850 204.107697,146.210236 204.645447,146.033829 
M323.945221,145.405762 
	C323.647400,145.249847 323.349548,145.093933 322.554810,144.491379 
	C312.480652,135.959839 301.301392,129.908279 287.564606,128.710220 
	C287.396667,128.497116 287.193268,128.326141 287.001129,128.100494 
	C287.001129,128.100494 286.901215,128.060822 286.558624,127.381294 
	C283.967041,126.996681 281.385040,126.372116 278.782257,126.268524 
	C266.772583,125.790535 254.714401,125.122231 243.204285,130.599411 
	C243.204285,130.599411 243.008545,130.814117 242.489746,130.733612 
	C242.337723,130.820297 242.185715,130.906998 241.364563,131.041718 
	C239.255051,132.074600 237.145523,133.107468 234.340347,134.170700 
	C232.209579,135.392532 230.078812,136.614365 227.269302,138.027527 
	C223.877213,140.459396 220.485123,142.891266 216.621979,145.541885 
	C216.186310,146.065460 215.750641,146.589020 215.101929,147.151276 
	C215.101929,147.151276 215.066849,147.364960 214.488739,147.642395 
	C207.710464,153.309525 201.993835,159.771851 199.413483,166.932953 
	C205.854172,162.063965 213.200287,156.510498 221.108566,150.439377 
	C224.388916,148.873367 227.669266,147.307373 231.717209,145.616760 
	C232.898819,145.120071 234.080414,144.623383 235.515427,144.250778 
	C235.731964,144.279312 235.888275,144.195435 236.753845,143.985428 
	C239.093460,143.307556 241.433075,142.629700 244.632675,141.832474 
	C252.135284,141.238235 259.637878,140.643997 267.884369,140.307205 
	C275.489807,142.236069 283.296967,143.599350 290.654449,146.223480 
	C302.328491,150.387192 310.885406,158.984634 318.959564,168.008835 
	C318.959564,168.008835 318.828094,168.162643 319.061768,168.805496 
	C322.341644,174.561874 325.621521,180.318253 329.043488,186.698532 
	C329.389771,187.468231 329.736053,188.237946 329.967682,189.519669 
	C330.067566,189.663254 330.167419,189.806839 330.269531,190.496445 
	C330.523376,190.962509 330.777252,191.428558 331.167511,192.702881 
	C332.566010,200.789963 333.964508,208.877060 335.455170,217.899887 
	C335.290070,222.595276 335.124939,227.290649 334.616669,232.195786 
	C334.338623,232.390564 334.298401,232.626022 334.273865,233.668045 
	C334.286011,234.463593 334.298187,235.259140 333.984772,236.773315 
	C333.335236,240.231155 332.685699,243.688995 331.729156,247.772888 
	C327.632935,263.530121 319.972748,277.254974 308.682861,289.140228 
	C322.458618,281.436920 333.707428,271.215424 341.449677,256.428101 
	C343.596344,251.620163 345.743011,246.812225 348.276276,241.394516 
	C349.791473,233.917831 351.306641,226.441147 353.190582,218.377243 
	C353.298645,205.971725 352.217590,193.741318 347.943054,181.399429 
	C347.652618,180.911545 347.362183,180.423660 347.062378,179.926758 
	C347.062378,179.926758 347.082489,179.903625 347.015839,179.157730 
	C343.374664,169.399063 338.226685,160.549438 331.080811,152.891541 
	C331.080811,152.891541 331.161041,152.849014 330.995361,152.203354 
	C328.692383,150.113449 326.389404,148.023529 324.042450,145.971146 
	C324.042450,145.971146 324.075256,145.940582 323.945221,145.405762 
M382.523407,333.519196 
	C382.571411,334.028748 382.619415,334.538330 382.461823,335.917694 
	C382.541992,338.601807 382.622162,341.285919 382.397522,344.861328 
	C382.397522,352.232849 382.397522,359.604340 382.397522,367.292297 
	C384.817444,367.292297 386.689301,367.292297 388.861053,367.292297 
	C388.861053,365.020782 388.861053,362.921417 388.967560,359.926483 
	C388.967560,351.008362 388.967560,342.090271 388.967560,332.888245 
	C386.621735,333.063507 384.825104,333.197723 382.523407,333.519196 
M305.674896,197.976227 
	C305.845825,208.298508 306.016754,218.620804 306.236694,229.651917 
	C306.406525,230.085129 306.576324,230.518356 306.696655,231.521713 
	C307.228241,232.500259 307.759827,233.478806 308.462189,234.441986 
	C308.462189,234.441986 308.318817,234.536087 308.212128,235.029251 
	C308.327118,235.340424 308.442108,235.651611 308.528625,236.632843 
	C309.052307,237.319382 309.575958,238.005905 310.117828,239.374680 
	C310.179962,239.593521 310.242096,239.812363 310.285492,240.715057 
	C311.347260,242.922806 312.408997,245.130554 313.479126,247.382690 
	C313.479126,247.382690 313.455658,247.422043 313.666138,248.138992 
	C315.754242,253.116302 317.842316,258.093597 320.312103,263.980743 
	C324.352936,257.732422 325.854248,251.869553 325.922699,245.726379 
	C326.094788,230.282349 326.040009,214.835373 325.985840,199.389893 
	C325.979706,197.641678 325.396301,195.895508 325.088348,193.338501 
	C323.769104,189.812637 322.449860,186.286789 321.020386,182.059647 
	C317.775696,175.631287 315.334869,168.339920 306.028564,167.671539 
	C306.028564,170.517990 306.028564,172.796356 305.828339,175.976273 
	C305.854126,183.074707 305.879913,190.173157 305.674896,197.976227 
M364.937836,338.168610 
	C364.233795,336.504913 363.529724,334.841248 362.521942,332.459839 
	C360.284088,333.118439 357.285583,333.104279 356.082245,334.566986 
	C354.315063,336.715057 353.830811,339.918549 352.276764,343.171173 
	C350.171021,348.426605 348.065277,353.682007 345.431610,359.428101 
	C344.647217,361.901947 343.862823,364.375763 342.933472,367.306702 
	C345.445801,367.306702 347.364838,367.306702 349.399994,367.306702 
	C350.510925,364.871155 351.644806,362.385345 352.860474,359.720154 
	C359.303406,361.037598 368.298615,355.722168 369.475555,367.424377 
	C371.949951,367.424377 373.901489,367.424377 376.700806,367.424377 
	C373.983276,360.725006 371.453247,354.487793 368.780457,347.515900 
	C367.536682,344.649261 366.292908,341.782623 364.937836,338.168610 
M226.394348,207.199753 
	C226.394348,207.199753 226.431366,207.224670 226.852173,206.681656 
	C228.153442,203.452057 229.454712,200.222458 230.950775,196.280502 
	C232.246765,193.189438 233.542755,190.098358 235.114243,186.729462 
	C235.114243,186.729462 235.139191,186.339294 235.752365,185.867233 
	C236.009644,184.870850 236.266937,183.874466 236.734146,182.636002 
	C236.734146,182.636002 236.695923,182.317871 237.210480,181.912964 
	C239.096924,177.605194 240.983383,173.297424 243.252884,168.114944 
	C235.368317,168.114944 228.450302,168.080872 221.532822,168.126999 
	C216.969223,168.157440 215.009247,170.814926 215.077255,176.019211 
	C214.906982,176.412811 214.736725,176.806412 214.093552,177.630966 
	C213.766785,178.405029 213.440018,179.179077 212.665512,180.516312 
	C212.054153,182.560928 211.442780,184.605545 210.279358,187.115112 
	C209.108536,190.351456 207.937714,193.587784 206.193115,197.194931 
	C205.119568,200.120117 204.046036,203.045303 202.583267,206.548859 
	C201.592163,208.974030 200.601059,211.399200 199.193726,214.384354 
	C198.836105,217.244431 198.478485,220.104507 198.257553,223.646698 
	C198.952301,225.109238 199.647049,226.571762 200.270920,228.504852 
	C200.397049,228.825806 200.626709,229.030731 200.963257,229.564178 
	C200.963257,229.564178 201.120392,229.980042 201.066513,230.718521 
	C203.546860,236.295914 206.027222,241.873322 208.507568,247.450714 
	C208.925079,247.414246 209.342606,247.377777 209.760117,247.341309 
	C211.550293,242.635757 213.340469,237.930206 215.724136,232.683319 
	C216.144913,231.451294 216.565689,230.219269 217.406052,228.409851 
	C217.627655,227.011566 217.849258,225.613297 218.683487,224.020859 
	C218.958969,223.714676 219.234436,223.408493 219.893173,222.857407 
	C220.120026,222.604828 220.173630,222.319687 220.508545,221.476868 
	C221.311813,219.320984 222.115082,217.165100 223.360474,214.448349 
	C223.872711,212.635483 224.384933,210.822617 225.089111,208.656815 
	C225.089111,208.656815 225.087646,208.255051 225.657761,208.091217 
	C225.889725,207.799500 226.121674,207.507767 226.394348,207.199753 
M174.023270,278.912781 
	C174.023270,278.912781 174.143143,278.912079 174.412277,279.513611 
	C177.242752,282.082764 180.073212,284.651917 183.272141,287.776978 
	C192.419708,295.230896 202.477478,300.944305 214.679749,304.203400 
	C217.899567,305.000183 221.088455,306.288177 224.345535,306.493256 
	C231.523788,306.945190 238.736450,306.850861 246.862061,306.990570 
	C249.664810,306.779816 252.467560,306.569031 255.976379,306.408112 
	C266.758240,304.137451 277.121735,300.854279 286.682404,293.846497 
	C292.849457,288.576294 299.016479,283.306122 305.183533,278.035919 
	C304.997620,277.585449 304.811707,277.134949 304.625824,276.684448 
	C296.283936,276.489868 291.012451,271.915100 287.966187,265.256134 
	C280.028168,270.383087 272.525818,275.228607 264.461395,280.127991 
	C263.978912,280.404724 263.496429,280.681488 262.502960,280.938293 
	C262.351196,281.015961 262.199463,281.093597 261.305725,281.179352 
	C255.218918,282.809387 249.132111,284.439392 242.474228,286.108398 
	C242.290298,286.159180 242.106369,286.209930 241.101028,286.098999 
	C239.432617,286.162720 237.764206,286.226440 235.353912,286.206085 
	C234.860672,286.273560 234.367447,286.341034 233.036331,286.154419 
	C228.355148,285.763489 223.673950,285.372559 218.438599,284.544373 
	C210.559769,281.394836 202.680954,278.245300 194.375793,274.596924 
	C191.582581,272.762695 188.789383,270.928467 185.689896,268.670349 
	C185.423935,268.448364 185.157974,268.226410 184.688538,267.485077 
	C184.118454,267.021515 183.548370,266.557953 182.663635,265.502075 
	C178.409592,260.744965 174.155548,255.987854 169.499847,250.595963 
	C169.067917,249.982285 168.635971,249.368607 168.355682,248.538834 
	C168.304001,248.338501 168.174606,248.234131 167.741806,247.546417 
	C157.855225,233.246521 153.354324,216.891144 150.026215,199.588608 
	C150.026215,210.056152 149.060730,220.007690 150.273621,229.686264 
	C151.748444,241.454834 155.377121,252.877319 162.330948,263.617371 
	C166.014313,268.401123 169.697678,273.184845 173.429764,278.352661 
	C173.557587,278.602478 173.760086,278.749512 174.023270,278.912781 
M240.352951,199.306610 
	C239.680908,201.202255 239.008850,203.097900 237.942520,205.557327 
	C237.912155,206.013718 237.881790,206.470093 237.305145,207.342697 
	C236.548645,209.304153 235.792130,211.265610 234.593140,213.743301 
	C232.100433,219.928238 229.607727,226.113190 226.811234,232.898483 
	C224.863525,237.929184 222.915817,242.959869 220.456619,248.459747 
	C218.087128,254.558426 215.717621,260.657104 213.120789,267.340912 
	C218.767914,267.340912 223.879562,267.043762 228.940094,267.425049 
	C233.934906,267.801422 236.448563,265.871429 237.263931,260.432098 
	C238.726089,257.111481 240.432617,253.872528 241.577637,250.445938 
	C242.601273,247.382645 244.364365,246.512299 247.453537,246.561813 
	C253.562744,246.659714 259.678558,246.345505 266.720123,246.446579 
	C271.541809,246.402939 276.363495,246.359299 281.697113,246.612854 
	C282.067444,246.519989 282.437775,246.427124 283.608307,246.520157 
	C285.014679,247.662933 286.936951,248.529663 287.725464,250.003098 
	C289.666107,253.629440 291.234253,257.479004 292.680298,261.340637 
	C294.946869,267.393372 298.479340,271.056366 305.614380,270.009949 
	C309.014893,269.511261 312.549103,269.924164 316.481323,269.924164 
	C315.147552,266.335052 314.110718,263.064850 312.733459,259.944885 
	C310.318024,254.473129 307.693970,249.093460 305.234924,242.909027 
	C303.536499,238.586533 301.838074,234.264053 300.104218,229.339920 
	C299.754700,228.868347 299.405182,228.396774 299.005096,227.985336 
	C299.005096,227.985336 299.080292,227.962524 299.075439,227.197220 
	C297.452820,223.128006 295.830231,219.058792 294.076233,214.235550 
	C292.089630,209.733322 290.103027,205.231094 288.129791,199.981461 
	C286.798431,197.229691 285.467072,194.477921 284.173859,191.103882 
	C283.792511,190.400467 283.411133,189.697052 283.387848,188.487259 
	C281.170868,182.984222 278.951355,177.482224 276.738007,171.977737 
	C275.630096,169.222488 273.826355,167.875244 270.634766,168.052521 
	C265.996552,168.310135 261.316833,167.903152 256.690826,168.254013 
	C255.001526,168.382111 252.561234,169.466766 251.934601,170.804245 
	C249.637390,175.707306 247.958878,180.900223 245.756699,186.556229 
	C245.457092,187.337357 245.157471,188.118484 244.895721,188.913879 
	C244.895721,188.913879 244.859604,188.883469 244.340179,189.357590 
	C243.184875,192.518127 242.029572,195.678650 240.876663,198.877640 
	C240.876663,198.877640 240.893570,198.910187 240.352951,199.306610 
M201.259247,243.515945 
	C201.259247,243.515945 200.956543,243.208618 200.873413,242.481415 
	C199.790756,240.311371 198.708099,238.141312 197.678864,235.264786 
	C195.758163,231.187637 193.837479,227.110504 191.877258,222.354095 
	C191.109543,220.610565 190.341827,218.867035 189.447479,216.326096 
	C186.730347,210.087921 184.013229,203.849731 181.027664,196.926971 
	C178.054474,190.064087 175.248947,183.120834 172.018585,176.381195 
	C170.863708,173.971741 169.114578,171.144836 166.886581,170.084183 
	C160.302109,166.949722 153.217270,168.183029 145.564407,168.470978 
	C149.656891,177.879700 153.375824,186.429611 157.191544,195.699112 
	C160.600952,203.780304 164.010376,211.861496 167.534439,220.619247 
	C168.681046,223.083344 169.827652,225.547455 171.060883,228.745789 
	C173.303421,233.811249 175.545975,238.876709 177.760239,244.624466 
	C179.559753,248.740082 181.359268,252.855698 183.192459,257.694733 
	C186.613388,266.569489 191.634460,269.463623 200.493484,267.414581 
	C201.530869,267.174683 202.503784,265.949310 203.177292,264.957184 
	C207.654556,258.361877 206.427139,252.066513 201.795410,245.184769 
	C201.560379,244.679550 201.325348,244.174316 201.259247,243.515945 
M242.202103,359.252960 
	C241.368042,358.127777 240.533997,357.002594 239.649323,355.809113 
	C241.334930,354.399567 242.702530,353.453613 243.831711,352.278534 
	C249.639526,346.234619 246.634338,335.218201 238.437363,333.850311 
	C232.178177,332.805817 225.700165,333.072693 219.329346,332.756714 
	C219.329346,344.817200 219.329346,356.039276 219.329346,367.240662 
	C221.567932,367.240662 223.476120,367.240662 225.865784,367.240662 
	C225.865784,363.338196 225.865784,359.750641 225.865784,356.373901 
	C233.184509,353.950043 234.791122,360.144348 237.338791,363.704346 
	C240.154633,367.639038 243.045624,368.227844 247.722076,366.943085 
	C245.816177,364.336090 244.190598,362.112518 242.202103,359.252960 
M187.091110,349.501404 
	C187.091110,355.417480 187.091110,361.333557 187.091110,367.243408 
	C195.519913,367.243408 203.237778,367.243408 210.965240,367.243408 
	C210.965240,364.982208 210.965240,363.060547 210.965240,360.984558 
	C207.170090,360.984558 203.674911,360.985840 200.179749,360.984314 
	C193.202087,360.981262 193.097672,360.846466 194.420334,353.064087 
	C199.258148,353.064087 204.173965,353.064087 209.336029,353.064087 
	C209.206955,350.859131 209.104340,349.106384 208.984833,347.065063 
	C203.719009,347.065063 198.944107,347.065063 194.093567,347.065063 
	C194.093567,344.505707 194.093567,342.270569 194.093567,339.508301 
	C199.893890,339.508301 205.441711,339.508301 210.965912,339.508301 
	C210.965912,337.038300 210.965912,335.102509 210.965912,333.287659 
	C202.928009,333.287659 195.168915,333.287659 187.090469,333.287659 
	C187.090469,338.561554 187.090469,343.532593 187.091110,349.501404 
M177.335861,347.928375 
	C172.313248,347.571533 167.290634,347.214661 162.246796,346.856293 
	C162.246796,344.506653 162.246796,342.283813 162.246796,339.506653 
	C168.081635,339.506653 173.630341,339.506653 179.101746,339.506653 
	C179.101746,337.020081 179.101746,335.098267 179.101746,333.282532 
	C171.040482,333.282532 163.299103,333.282532 155.531998,333.282532 
	C155.531998,344.769470 155.531998,355.955353 155.531998,367.279907 
	C163.609207,367.279907 171.327972,367.279907 179.174713,367.279907 
	C179.174713,365.071014 179.174713,363.160675 179.174713,360.834717 
	C173.309952,360.834717 167.733444,360.834717 162.257278,360.834717 
	C162.257278,358.169739 162.257278,355.929077 162.257278,353.317017 
	C167.335876,353.317017 172.107025,353.317017 177.165695,353.317017 
	C177.360168,351.551910 177.517593,350.122894 177.335861,347.928375 
M128.157166,363.579803 
	C129.160385,369.005707 133.002731,367.614777 136.481430,367.194397 
	C140.809448,355.934631 145.087982,344.803619 149.408432,333.563599 
	C141.996140,332.450836 142.064453,332.545319 139.962677,339.088684 
	C137.955276,345.338196 135.604568,351.477417 132.905304,359.069977 
	C130.097656,351.190826 127.303093,344.875183 125.665535,338.272583 
	C124.342094,332.936462 121.566803,332.195984 116.478035,333.598938 
	C120.304642,343.412018 124.096077,353.134888 128.157166,363.579803 
M292.824982,348.793823 
	C291.432648,348.279358 290.061829,347.406036 288.643738,347.321014 
	C285.083008,347.107513 281.500854,347.250458 278.160278,347.250458 
	C278.160278,344.254517 278.160278,342.020752 278.160278,339.404968 
	C283.626099,339.404968 288.712708,339.404968 293.755310,339.404968 
	C293.755310,337.095581 293.755310,335.185577 293.755310,333.326111 
	C286.098236,333.326111 278.722046,333.326111 271.459473,333.326111 
	C271.459473,344.872192 271.459473,356.069519 271.459473,367.182556 
	C273.733185,367.182556 275.627319,367.182556 277.988007,367.182556 
	C277.988007,362.594391 277.988007,358.368256 277.988007,353.832947 
	C283.058624,353.832947 287.662109,353.832947 292.583405,353.832947 
	C292.680298,352.237549 292.758148,350.955750 292.824982,348.793823 
M326.549530,333.009003 
	C324.894623,334.103027 322.849060,334.883423 321.666412,336.356598 
	C319.230072,339.391388 317.254608,342.796173 314.767151,346.532959 
	C312.434296,343.064819 310.091949,340.280182 308.537415,337.109314 
	C306.158875,332.257751 302.586273,332.488464 297.930450,333.618225 
	C305.120636,344.160309 315.007965,353.101166 311.193939,367.223572 
	C314.126984,367.223572 316.018066,367.223572 318.078918,367.223572 
	C318.078918,365.211334 318.142578,363.553101 318.067291,361.901215 
	C317.815521,356.378143 318.181000,351.333649 322.394409,346.783081 
	C325.965942,342.925751 328.357758,337.976074 331.605194,332.998505 
	C329.623688,332.998505 328.469330,332.998505 326.549530,333.009003 
M261.429749,363.944397 
	C261.429749,353.704132 261.429749,343.463837 261.429749,333.308716 
	C258.942780,333.308716 257.047363,333.308716 255.223633,333.308716 
	C255.223633,344.834503 255.223633,356.046997 255.223633,367.789032 
	C257.589935,366.656860 261.132446,369.674255 261.429749,363.944397 
z"/>
<path fill="#DB5798" opacity="1.000000" stroke="none" 
	d="
M227.115021,232.298141 
	C229.607727,226.113190 232.100433,219.928238 234.821930,213.809326 
	C235.098938,216.311920 235.791977,217.731522 238.632202,218.544266 
	C243.232193,219.860580 247.560593,222.125931 252.006287,224.327759 
	C253.094131,225.143799 254.167908,226.005722 255.266495,226.038605 
	C261.802094,226.234238 268.343414,226.238174 274.545593,226.521637 
	C272.089447,226.822479 269.971008,226.963165 267.851440,226.982803 
	C263.104370,227.026794 258.356750,227.008820 253.609772,227.055252 
	C253.577911,227.055557 253.531479,227.607864 253.544342,227.900101 
	C253.546219,227.942978 253.841858,227.972916 254.082825,228.361908 
	C257.130157,229.985489 260.063812,231.339005 263.067963,232.512054 
	C275.616669,237.412048 287.589050,243.840759 300.967621,246.560364 
	C303.808075,247.137772 305.088470,246.576035 305.157288,243.675232 
	C307.693970,249.093460 310.318024,254.473129 312.733459,259.944885 
	C314.110718,263.064850 315.147552,266.335052 316.481323,269.924164 
	C312.549103,269.924164 309.014893,269.511261 305.614380,270.009949 
	C298.479340,271.056366 294.946869,267.393372 292.680298,261.340637 
	C291.234253,257.479004 289.666107,253.629440 287.725464,250.003098 
	C286.936951,248.529663 285.014679,247.662933 283.067383,246.317978 
	C282.079376,246.182404 281.632294,246.249023 281.185181,246.315643 
	C276.363495,246.359299 271.541809,246.402939 266.062439,246.217255 
	C264.941376,245.659637 264.478027,245.331329 264.332397,244.945694 
	C264.576538,244.046204 264.744904,242.591919 264.393280,242.452927 
	C258.237274,240.019180 252.068604,237.594025 245.792969,235.494980 
	C241.948959,234.209259 237.960281,233.078751 233.955917,232.671646 
	C232.068466,232.479767 229.991287,234.154022 227.771667,234.793900 
	C227.400497,233.836121 227.257751,233.067123 227.115021,232.298141 
z"/>
<path fill="#FA8B76" opacity="1.000000" stroke="none" 
	d="
M287.823517,129.015335 
	C301.301392,129.908279 312.480652,135.959839 322.908997,144.939758 
	C323.470367,145.665619 323.741058,145.849762 324.075256,145.940582 
	C324.075256,145.940582 324.042450,145.971146 324.077515,146.300262 
	C326.462036,148.702576 328.811554,150.775803 331.161041,152.849014 
	C331.161041,152.849014 331.080811,152.891541 331.074097,153.258270 
	C331.883820,155.175186 332.861603,156.663742 333.482330,158.288696 
	C334.683594,161.433594 336.297852,163.933167 331.557404,166.734695 
	C327.030457,169.410034 323.325531,169.863205 318.828094,168.162643 
	C318.828094,168.162643 318.959564,168.008835 318.949249,167.642944 
	C318.709106,165.355240 319.196259,162.650513 318.114075,161.659470 
	C314.962250,158.773193 311.129791,156.643692 307.668854,154.076401 
	C305.560883,152.512726 303.316986,150.949326 301.714294,148.926208 
	C298.565369,144.951218 295.866302,140.622635 292.867859,136.523148 
	C292.331482,135.789795 291.265717,135.427429 290.416870,134.941833 
	C287.712616,133.394852 284.995392,131.870529 281.669037,129.990295 
	C283.917297,129.161209 285.409241,128.611023 286.901215,128.060822 
	C286.901215,128.060822 287.001129,128.100494 287.092896,128.315063 
	C287.362427,128.737823 287.575348,128.899734 287.823517,129.015335 
z"/>
<path fill="#3EC6E1" opacity="1.000000" stroke="none" 
	d="
M157.094772,194.979523 
	C153.375824,186.429611 149.656891,177.879700 145.564407,168.470978 
	C153.217270,168.183029 160.302109,166.949722 166.886581,170.084183 
	C169.114578,171.144836 170.863708,173.971741 172.018585,176.381195 
	C175.248947,183.120834 178.054474,190.064087 180.956955,197.561920 
	C179.236847,198.412903 177.430328,199.170380 175.966812,198.745758 
	C171.130295,197.342514 166.466644,195.340515 161.625000,193.959854 
	C160.318130,193.587173 158.615662,194.601715 157.094772,194.979523 
z"/>
<path fill="#EEEBE8" opacity="1.000000" stroke="none" 
	d="
M242.383545,359.570923 
	C244.190598,362.112518 245.816177,364.336090 247.722076,366.943085 
	C243.045624,368.227844 240.154633,367.639038 237.338791,363.704346 
	C234.791122,360.144348 233.184509,353.950043 225.865784,356.373901 
	C225.865784,359.750641 225.865784,363.338196 225.865784,367.240662 
	C223.476120,367.240662 221.567932,367.240662 219.329346,367.240662 
	C219.329346,356.039276 219.329346,344.817200 219.329346,332.756714 
	C225.700165,333.072693 232.178177,332.805817 238.437363,333.850311 
	C246.634338,335.218201 249.639526,346.234619 243.831711,352.278534 
	C242.702530,353.453613 241.334930,354.399567 239.649323,355.809113 
	C240.533997,357.002594 241.368042,358.127777 242.383545,359.570923 
M235.043106,339.648499 
	C232.093124,339.648499 229.143143,339.648499 226.054474,339.648499 
	C226.054474,343.468384 226.054474,346.846405 226.054474,350.846619 
	C229.315033,350.513123 232.413925,350.727081 235.071609,349.745880 
	C236.982697,349.040375 239.387344,346.854736 239.571594,345.117249 
	C239.740494,343.524567 237.229492,341.647705 235.043106,339.648499 
z"/>
<path fill="#8D38AF" opacity="1.000000" stroke="none" 
	d="
M218.992767,284.981628 
	C223.673950,285.372559 228.355148,285.763489 233.238480,286.446899 
	C232.984756,286.923798 232.528885,287.108215 232.073013,287.292664 
	C233.869339,290.948700 235.198441,294.958527 237.612717,298.146606 
	C239.478699,300.610657 243.340836,301.544128 242.882889,305.773071 
	C242.851639,306.061646 244.869949,306.572144 245.935074,306.979431 
	C238.736450,306.850861 231.523788,306.945190 224.345535,306.493256 
	C221.088455,306.288177 217.899567,305.000183 214.443939,303.752045 
	C212.039200,302.214020 209.904846,301.050537 207.694427,300.056061 
	C202.556488,297.744507 201.789062,293.889496 205.772110,290.133575 
	C206.474609,289.471130 207.619568,288.818604 207.719650,288.051788 
	C208.335403,283.333710 211.150726,283.647919 214.581604,284.641754 
	C215.968460,285.043488 217.517517,284.885132 218.992767,284.981628 
z"/>
<path fill="#E8E5E3" opacity="1.000000" stroke="none" 
	d="
M187.090790,349.002502 
	C187.090469,343.532593 187.090469,338.561554 187.090469,333.287659 
	C195.168915,333.287659 202.928009,333.287659 210.965912,333.287659 
	C210.965912,335.102509 210.965912,337.038300 210.965912,339.508301 
	C205.441711,339.508301 199.893890,339.508301 194.093567,339.508301 
	C194.093567,342.270569 194.093567,344.505707 194.093567,347.065063 
	C198.944107,347.065063 203.719009,347.065063 208.984833,347.065063 
	C209.104340,349.106384 209.206955,350.859131 209.336029,353.064087 
	C204.173965,353.064087 199.258148,353.064087 194.420334,353.064087 
	C193.097672,360.846466 193.202087,360.981262 200.179749,360.984314 
	C203.674911,360.985840 207.170090,360.984558 210.965240,360.984558 
	C210.965240,363.060547 210.965240,364.982208 210.965240,367.243408 
	C203.237778,367.243408 195.519913,367.243408 187.091110,367.243408 
	C187.091110,361.333557 187.091110,355.417480 187.090790,349.002502 
z"/>
<path fill="#E8E5E3" opacity="1.000000" stroke="none" 
	d="
M177.505447,348.311127 
	C177.517593,350.122894 177.360168,351.551910 177.165695,353.317017 
	C172.107025,353.317017 167.335876,353.317017 162.257278,353.317017 
	C162.257278,355.929077 162.257278,358.169739 162.257278,360.834717 
	C167.733444,360.834717 173.309952,360.834717 179.174713,360.834717 
	C179.174713,363.160675 179.174713,365.071014 179.174713,367.279907 
	C171.327972,367.279907 163.609207,367.279907 155.531998,367.279907 
	C155.531998,355.955353 155.531998,344.769470 155.531998,333.282532 
	C163.299103,333.282532 171.040482,333.282532 179.101746,333.282532 
	C179.101746,335.098267 179.101746,337.020081 179.101746,339.506653 
	C173.630341,339.506653 168.081635,339.506653 162.246796,339.506653 
	C162.246796,342.283813 162.246796,344.506653 162.246796,346.856293 
	C167.290634,347.214661 172.313248,347.571533 177.505447,348.311127 
z"/>
<path fill="#B3469D" opacity="1.000000" stroke="none" 
	d="
M263.013916,280.958252 
	C263.496429,280.681488 263.978912,280.404724 264.795776,280.462921 
	C265.620392,281.415680 265.986603,282.241730 266.620117,282.619110 
	C273.058075,286.454132 279.539581,290.216003 286.008911,293.998383 
	C277.121735,300.854279 266.758240,304.137451 255.805267,306.183533 
	C258.727325,302.703278 258.192413,300.101685 254.637802,297.706207 
	C251.842697,295.822601 249.450348,293.303741 247.032425,290.912079 
	C245.553589,289.449280 244.364517,287.693573 243.045303,286.069397 
	C249.132111,284.439392 255.218918,282.809387 261.793610,281.295807 
	C262.525635,281.260925 262.769775,281.109558 263.013916,280.958252 
z"/>
<path fill="#C54BA0" opacity="1.000000" stroke="none" 
	d="
M286.345642,293.922424 
	C279.539581,290.216003 273.058075,286.454132 266.620117,282.619110 
	C265.986603,282.241730 265.620392,281.415680 265.076813,280.435974 
	C272.525818,275.228607 280.028168,270.383087 287.966187,265.256134 
	C291.012451,271.915100 296.283936,276.489868 304.625824,276.684448 
	C304.811707,277.134949 304.997620,277.585449 305.183533,278.035919 
	C299.016479,283.306122 292.849457,288.576294 286.345642,293.922424 
z"/>
<path fill="#E96592" opacity="1.000000" stroke="none" 
	d="
M305.196106,243.292130 
	C305.088470,246.576035 303.808075,247.137772 300.967621,246.560364 
	C287.589050,243.840759 275.616669,237.412048 263.067963,232.512054 
	C260.063812,231.339005 257.130157,229.985489 254.551254,228.359131 
	C260.920471,228.001846 266.905884,228.107147 272.882050,227.919449 
	C274.272461,227.875778 275.631592,226.835052 277.128265,226.071503 
	C277.499207,225.694534 277.623962,225.439087 278.069855,225.092285 
	C281.027710,225.645615 283.514343,226.441101 286.061127,226.767731 
	C290.380890,227.321716 294.738556,227.579971 299.080292,227.962524 
	C299.080292,227.962524 299.005096,227.985336 299.052185,228.263153 
	C299.446075,229.007828 299.792877,229.474701 300.139648,229.941574 
	C301.838074,234.264053 303.536499,238.586533 305.196106,243.292130 
z"/>
<path fill="#349FD4" opacity="1.000000" stroke="none" 
	d="
M157.143158,195.339310 
	C158.615662,194.601715 160.318130,193.587173 161.625000,193.959854 
	C166.466644,195.340515 171.130295,197.342514 175.966812,198.745758 
	C177.430328,199.170380 179.236847,198.412903 181.091187,197.904221 
	C184.013229,203.849731 186.730347,210.087921 189.089935,216.658539 
	C187.290298,216.717117 185.277939,215.695694 184.498383,216.290375 
	C179.309952,220.248260 173.056091,218.568726 167.419800,219.942688 
	C164.010376,211.861496 160.600952,203.780304 157.143158,195.339310 
z"/>
<path fill="#EEEBE8" opacity="1.000000" stroke="none" 
	d="
M128.022339,363.218811 
	C124.096077,353.134888 120.304642,343.412018 116.478035,333.598938 
	C121.566803,332.195984 124.342094,332.936462 125.665535,338.272583 
	C127.303093,344.875183 130.097656,351.190826 132.905304,359.069977 
	C135.604568,351.477417 137.955276,345.338196 139.962677,339.088684 
	C142.064453,332.545319 141.996140,332.450836 149.408432,333.563599 
	C145.087982,344.803619 140.809448,355.934631 136.481430,367.194397 
	C133.002731,367.614777 129.160385,369.005707 128.022339,363.218811 
z"/>
<path fill="#3A79C7" opacity="1.000000" stroke="none" 
	d="
M162.147522,262.964386 
	C155.377121,252.877319 151.748444,241.454834 150.273621,229.686264 
	C149.060730,220.007690 150.026215,210.056152 150.026215,199.588608 
	C153.354324,216.891144 157.855225,233.246521 167.881943,247.979660 
	C168.022079,248.412903 168.204041,248.754929 168.204041,248.754929 
	C168.635971,249.368607 169.067917,249.982285 169.550949,251.241440 
	C169.016632,256.857605 166.180725,260.313873 162.147522,262.964386 
z"/>
<path fill="#E8E5E3" opacity="1.000000" stroke="none" 
	d="
M292.830505,349.233887 
	C292.758148,350.955750 292.680298,352.237549 292.583405,353.832947 
	C287.662109,353.832947 283.058624,353.832947 277.988007,353.832947 
	C277.988007,358.368256 277.988007,362.594391 277.988007,367.182556 
	C275.627319,367.182556 273.733185,367.182556 271.459473,367.182556 
	C271.459473,356.069519 271.459473,344.872192 271.459473,333.326111 
	C278.722046,333.326111 286.098236,333.326111 293.755310,333.326111 
	C293.755310,335.185577 293.755310,337.095581 293.755310,339.404968 
	C288.712708,339.404968 283.626099,339.404968 278.160278,339.404968 
	C278.160278,342.020752 278.160278,344.254517 278.160278,347.250458 
	C281.500854,347.250458 285.083008,347.107513 288.643738,347.321014 
	C290.061829,347.406036 291.432648,348.279358 292.830505,349.233887 
z"/>
<path fill="#F3847F" opacity="1.000000" stroke="none" 
	d="
M240.874268,198.839188 
	C242.029572,195.678650 243.184875,192.518127 244.646988,189.473862 
	C246.758911,190.451706 248.501083,191.862885 250.380203,192.078094 
	C257.840698,192.932571 265.335510,193.586548 272.835266,193.954483 
	C276.226105,194.120850 279.658386,193.443085 283.834106,193.082458 
	C283.723328,193.580597 283.929535,192.653381 284.135712,191.726151 
	C285.467072,194.477921 286.798431,197.229691 288.095337,200.756882 
	C287.231232,203.667892 286.401550,205.803497 285.265320,208.728165 
	C283.222321,206.097916 281.980164,204.498718 280.526154,202.626785 
	C278.998840,204.380493 277.862030,205.685822 276.353882,207.417496 
	C273.158936,204.822342 270.193024,202.413254 267.096802,199.825317 
	C266.966431,199.646484 266.904785,199.208389 266.888611,198.875122 
	C266.473083,198.063385 266.073730,197.584900 265.439575,196.876404 
	C264.187225,197.458633 262.813324,198.072113 262.226227,199.124512 
	C261.000641,201.321518 260.190613,203.750351 258.918884,205.862701 
	C257.778534,204.728134 256.952515,203.052734 256.075989,203.025879 
	C250.631821,202.859116 245.864960,200.484589 240.874268,198.839188 
z"/>
<path fill="#EEEBE8" opacity="1.000000" stroke="none" 
	d="
M326.932251,333.003754 
	C328.469330,332.998505 329.623688,332.998505 331.605194,332.998505 
	C328.357758,337.976074 325.965942,342.925751 322.394409,346.783081 
	C318.181000,351.333649 317.815521,356.378143 318.067291,361.901215 
	C318.142578,363.553101 318.078918,365.211334 318.078918,367.223572 
	C316.018066,367.223572 314.126984,367.223572 311.193939,367.223572 
	C315.007965,353.101166 305.120636,344.160309 297.930450,333.618225 
	C302.586273,332.488464 306.158875,332.257751 308.537415,337.109314 
	C310.091949,340.280182 312.434296,343.064819 314.767151,346.532959 
	C317.254608,342.796173 319.230072,339.391388 321.666412,336.356598 
	C322.849060,334.883423 324.894623,334.103027 326.932251,333.003754 
z"/>
<path fill="#5940B4" opacity="1.000000" stroke="none" 
	d="
M218.715683,284.763000 
	C217.517517,284.885132 215.968460,285.043488 214.581604,284.641754 
	C211.150726,283.647919 208.335403,283.333710 207.719650,288.051788 
	C207.619568,288.818604 206.474609,289.471130 205.772110,290.133575 
	C201.789062,293.889496 202.556488,297.744507 207.694427,300.056061 
	C209.904846,301.050537 212.039200,302.214020 214.106232,303.574554 
	C202.477478,300.944305 192.419708,295.230896 183.166351,287.136414 
	C186.974411,282.695831 190.888275,278.895813 194.802124,275.095764 
	C202.680954,278.245300 210.559769,281.394836 218.715683,284.763000 
z"/>
<path fill="#F8986E" opacity="1.000000" stroke="none" 
	d="
M226.103027,128.339111 
	C221.823990,131.360641 217.544952,134.382172 212.758789,137.509186 
	C205.967300,134.647354 199.682968,131.680054 193.398621,128.712738 
	C200.210327,124.771507 207.022049,120.830284 214.568665,116.936234 
	C217.454391,118.141945 219.913528,118.957718 221.678528,120.545235 
	C223.915710,122.557449 227.432480,124.179733 226.103027,128.339111 
z"/>
<path fill="#F3847F" opacity="1.000000" stroke="none" 
	d="
M286.729919,127.721069 
	C285.409241,128.611023 283.917297,129.161209 281.669037,129.990295 
	C284.995392,131.870529 287.712616,133.394852 290.416870,134.941833 
	C291.265717,135.427429 292.331482,135.789795 292.867859,136.523148 
	C295.866302,140.622635 298.565369,144.951218 301.714294,148.926208 
	C303.316986,150.949326 305.560883,152.512726 307.668854,154.076401 
	C311.129791,156.643692 314.962250,158.773193 318.114075,161.659470 
	C319.196259,162.650513 318.709106,165.355240 318.887268,167.719116 
	C310.885406,158.984634 302.328491,150.387192 290.654449,146.223480 
	C283.296967,143.599350 275.489807,142.236069 267.038788,140.143921 
	C261.809692,139.657318 257.426208,139.333969 253.506683,139.010834 
	C262.045135,139.421371 270.116791,139.923340 278.196228,140.173370 
	C280.060944,140.231094 281.952393,139.426163 285.101440,138.742493 
	C282.044922,136.220932 279.674408,135.208786 278.968475,133.506378 
	C276.833954,128.358749 273.038147,127.524338 268.179382,127.950638 
	C265.054535,128.224792 261.828705,127.625107 258.751343,128.094116 
	C254.782440,128.699005 250.916687,129.980515 246.561966,130.972382 
	C245.233124,130.892288 244.348831,130.810440 243.464539,130.728577 
	C254.714401,125.122231 266.772583,125.790535 278.782257,126.268524 
	C281.385040,126.372116 283.967041,126.996681 286.729919,127.721069 
z"/>
<path fill="#B3469D" opacity="1.000000" stroke="none" 
	d="
M264.014648,245.003036 
	C264.478027,245.331329 264.941376,245.659637 265.598206,246.094803 
	C259.678558,246.345505 253.562744,246.659714 247.453537,246.561813 
	C244.364365,246.512299 242.601273,247.382645 241.577637,250.445938 
	C240.432617,253.872528 238.726089,257.111481 236.841599,260.706665 
	C236.419266,260.981262 236.030594,261.008850 236.060394,260.659790 
	C237.559280,256.501068 235.440506,254.419678 232.455399,252.747269 
	C230.750595,251.792160 229.149460,250.535645 227.330002,249.933228 
	C225.374466,249.285767 223.218002,249.245239 221.106033,248.702164 
	C221.062866,248.464432 220.968109,247.990570 220.968109,247.990570 
	C222.915817,242.959869 224.863525,237.929184 226.963135,232.598312 
	C227.257751,233.067123 227.400497,233.836121 227.857422,235.163071 
	C230.389725,236.558914 232.549347,237.637924 234.836121,238.192764 
	C244.541748,240.547592 254.285080,242.746918 264.014648,245.003036 
z"/>
<path fill="#8CDCD9" opacity="1.000000" stroke="none" 
	d="
M249.100830,109.174721 
	C271.021149,108.285515 290.922089,113.915527 308.400238,127.366905 
	C302.146027,123.000229 278.963989,118.907005 259.295593,118.714661 
	C255.450729,115.354683 252.275772,112.264702 249.100830,109.174721 
z"/>
<path fill="#4761C1" opacity="1.000000" stroke="none" 
	d="
M191.916779,223.033356 
	C193.837479,227.110504 195.758163,231.187637 197.298065,235.646698 
	C195.068161,237.025543 193.226990,238.037613 191.367752,239.015289 
	C189.400024,240.050003 186.946533,240.624680 185.542633,242.164001 
	C183.177658,244.757126 180.802704,245.213440 177.788528,243.942154 
	C175.545975,238.876709 173.303421,233.811249 171.332397,228.509476 
	C172.961853,228.055038 174.339890,227.921204 175.674072,227.603317 
	C180.015808,226.568817 184.350647,225.501816 188.667130,224.367401 
	C189.789688,224.072388 190.835648,223.485962 191.916779,223.033356 
z"/>
<path fill="#FA8B76" opacity="1.000000" stroke="none" 
	d="
M193.070496,128.734375 
	C199.682968,131.680054 205.967300,134.647354 212.547607,137.791595 
	C210.509705,140.259674 208.175812,142.550842 205.276245,145.066864 
	C204.509613,145.597900 204.308655,145.904068 204.107697,146.210236 
	C204.107697,146.210236 204.095612,146.092850 203.893036,146.199066 
	C203.506287,146.616058 203.322128,146.926834 203.137970,147.237625 
	C203.137970,147.237625 203.130188,147.139847 202.811157,147.140198 
	C199.550522,149.034317 196.283264,150.889099 193.167252,148.255203 
	C189.482147,145.140274 186.340424,141.382507 182.963150,137.903381 
	C186.222885,134.854263 189.482620,131.805145 193.070496,128.734375 
z"/>
<path fill="#DB5798" opacity="1.000000" stroke="none" 
	d="
M334.310364,236.054688 
	C334.298187,235.259140 334.286011,234.463593 334.516235,233.164520 
	C334.901184,232.458527 334.968231,232.233536 334.959808,231.986038 
	C335.124939,227.290649 335.290070,222.595276 335.559052,217.406250 
	C335.662933,216.912628 335.967010,216.900955 336.035400,217.290497 
	C336.610107,220.900497 338.427856,221.642319 341.680298,222.254959 
	C346.158203,223.098465 348.872711,220.886398 352.223907,218.926956 
	C352.423553,218.933167 352.821808,218.964462 352.821808,218.964462 
	C351.306641,226.441147 349.791473,233.917831 347.778503,241.754593 
	C345.376953,242.114670 343.473206,242.114670 340.475189,242.114670 
	C340.359650,242.192581 339.172302,242.993164 337.661774,244.011688 
	C336.437134,241.104172 335.373749,238.579437 334.310364,236.054688 
z"/>
<path fill="#B3469D" opacity="1.000000" stroke="none" 
	d="
M341.083374,257.001282 
	C333.707428,271.215424 322.458618,281.436920 308.682861,289.140228 
	C319.972748,277.254974 327.632935,263.530121 331.912384,247.820648 
	C333.013519,249.323395 334.622437,250.734161 334.718872,252.241684 
	C335.000061,256.637268 337.699615,257.119232 341.083374,257.001282 
z"/>
<path fill="#5940B4" opacity="1.000000" stroke="none" 
	d="
M201.988831,245.999237 
	C206.427139,252.066513 207.654556,258.361877 203.177292,264.957184 
	C202.503784,265.949310 201.530869,267.174683 200.493484,267.414581 
	C191.634460,269.463623 186.613388,266.569489 183.543152,257.337219 
	C185.170578,256.412231 186.539581,255.990692 187.707886,255.251816 
	C192.501450,252.220200 197.233902,249.091934 201.988831,245.999237 
z"/>
<path fill="#F3847F" opacity="1.000000" stroke="none" 
	d="
M318.944946,168.484070 
	C323.325531,169.863205 327.030457,169.410034 331.557404,166.734695 
	C336.297852,163.933167 334.683594,161.433594 333.482330,158.288696 
	C332.861603,156.663742 331.883820,155.175186 331.109619,153.243637 
	C338.226685,160.549438 343.374664,169.399063 346.737732,179.415924 
	C344.400696,178.219788 342.341797,176.765442 340.078644,175.166840 
	C338.755981,177.757339 337.741608,179.744080 336.465424,182.243546 
	C330.135315,176.700058 330.972137,183.830307 328.901398,186.074631 
	C325.621521,180.318253 322.341644,174.561874 318.944946,168.484070 
z"/>
<path fill="#F67787" opacity="1.000000" stroke="none" 
	d="
M328.972443,186.386581 
	C330.972137,183.830307 330.135315,176.700058 336.465424,182.243546 
	C337.741608,179.744080 338.755981,177.757339 340.078644,175.166840 
	C342.341797,176.765442 344.400696,178.219788 346.771057,179.788879 
	C347.082489,179.903625 347.062378,179.926758 347.040894,180.274658 
	C347.024597,181.081787 347.029724,181.541000 347.025665,182.402374 
	C347.151794,183.777954 347.131836,184.805008 347.446777,185.716354 
	C350.243835,193.809692 346.553009,199.500992 337.899506,199.793945 
	C336.622833,199.837158 335.098114,197.890091 334.005585,196.595917 
	C332.820557,195.192184 332.006775,193.475067 331.031097,191.894623 
	C330.777252,191.428558 330.523376,190.962509 330.382080,190.110992 
	C330.588348,189.377533 330.450928,189.138229 330.082336,189.007645 
	C329.736053,188.237946 329.389771,187.468231 328.972443,186.386581 
z"/>
<path fill="#4761C1" opacity="1.000000" stroke="none" 
	d="
M162.239227,263.290894 
	C166.180725,260.313873 169.016632,256.857605 169.751785,251.558823 
	C174.155548,255.987854 178.409592,260.744965 182.873413,266.096863 
	C183.686142,267.129211 184.289078,267.566833 184.892014,268.004425 
	C185.157974,268.226410 185.423935,268.448364 185.791504,269.228516 
	C184.590927,270.910492 183.339996,272.101379 181.975510,273.143646 
	C179.399231,275.111603 176.757614,276.994080 174.143127,278.912079 
	C174.143143,278.912079 174.023270,278.912781 173.946381,278.696777 
	C173.735214,278.282837 173.572388,278.112122 173.381042,277.968597 
	C169.697678,273.184845 166.014313,268.401123 162.239227,263.290894 
z"/>
<path fill="#FA8B76" opacity="1.000000" stroke="none" 
	d="
M284.154785,191.415009 
	C283.929535,192.653381 283.723328,193.580597 283.834106,193.082458 
	C279.658386,193.443085 276.226105,194.120850 272.835266,193.954483 
	C265.335510,193.586548 257.840698,192.932571 250.380203,192.078094 
	C248.501083,191.862885 246.758911,190.451706 244.906708,189.236801 
	C244.859604,188.883469 244.895721,188.913879 245.226013,188.880768 
	C246.043793,187.910217 246.531281,186.972794 247.263184,185.793243 
	C248.337234,184.367004 249.166870,183.182892 250.157776,182.308243 
	C252.097183,183.688919 253.855316,185.627136 255.657242,185.668762 
	C261.053925,185.793396 266.470459,185.215424 271.873657,184.832657 
	C274.590820,184.640152 277.295837,184.276276 280.254089,184.209473 
	C281.344452,185.950577 282.187103,187.472122 283.029755,188.993652 
	C283.411133,189.697052 283.792511,190.400467 284.154785,191.415009 
z"/>
<path fill="#F3847F" opacity="1.000000" stroke="none" 
	d="
M182.636963,138.000732 
	C186.340424,141.382507 189.482147,145.140274 193.167252,148.255203 
	C196.283264,150.889099 199.550522,149.034317 202.857330,147.156754 
	C199.988464,151.254898 196.754395,155.336853 192.997467,159.827042 
	C190.878006,159.880875 188.605530,160.073166 187.800781,159.078262 
	C184.151978,154.567322 179.063156,152.829239 174.019196,150.622635 
	C174.322189,149.316772 174.566864,148.372665 174.811539,147.428558 
	C177.311279,144.318390 179.811035,141.208221 182.636963,138.000732 
z"/>
<path fill="#9F3AAD" opacity="1.000000" stroke="none" 
	d="
M242.759766,286.088928 
	C244.364517,287.693573 245.553589,289.449280 247.032425,290.912079 
	C249.450348,293.303741 251.842697,295.822601 254.637802,297.706207 
	C258.192413,300.101685 258.727325,302.703278 255.452240,306.158630 
	C252.467560,306.569031 249.664810,306.779816 246.398560,306.984985 
	C244.869949,306.572144 242.851639,306.061646 242.882889,305.773071 
	C243.340836,301.544128 239.478699,300.610657 237.612717,298.146606 
	C235.198441,294.958527 233.869339,290.948700 232.073013,287.292664 
	C232.528885,287.108215 232.984756,286.923798 233.657410,286.573914 
	C234.367447,286.341034 234.860672,286.273560 235.999237,286.451630 
	C238.403854,286.551666 240.163147,286.406158 241.922440,286.260651 
	C242.106369,286.209930 242.290298,286.159180 242.759766,286.088928 
z"/>
<path fill="#F1718C" opacity="1.000000" stroke="none" 
	d="
M331.099304,192.298752 
	C332.006775,193.475067 332.820557,195.192184 334.005585,196.595917 
	C335.098114,197.890091 336.622833,199.837158 337.899506,199.793945 
	C346.553009,199.500992 350.243835,193.809692 347.446777,185.716354 
	C347.131836,184.805008 347.151794,183.777954 347.224792,182.401978 
	C347.433105,181.999405 347.832825,181.997467 347.832825,181.997467 
	C352.217590,193.741318 353.298645,205.971725 353.006195,218.670853 
	C352.821808,218.964462 352.423553,218.933167 352.216797,218.479675 
	C350.727631,215.127335 354.934265,210.082642 349.087677,209.135437 
	C343.117126,208.168182 336.701050,212.363556 335.967010,216.900955 
	C335.967010,216.900955 335.662933,216.912628 335.512970,216.938385 
	C333.964508,208.877060 332.566010,200.789963 331.099304,192.298752 
z"/>
<path fill="#4F50BA" opacity="1.000000" stroke="none" 
	d="
M201.892120,245.592010 
	C197.233902,249.091934 192.501450,252.220200 187.707886,255.251816 
	C186.539581,255.990692 185.170578,256.412231 183.526306,256.975494 
	C181.359268,252.855698 179.559753,248.740082 177.774384,244.283310 
	C180.802704,245.213440 183.177658,244.757126 185.542633,242.164001 
	C186.946533,240.624680 189.400024,240.050003 191.367752,239.015289 
	C193.226990,238.037613 195.068161,237.025543 197.271362,235.999924 
	C198.708099,238.141312 199.790756,240.311371 200.937576,242.921844 
	C201.001740,243.362274 201.090302,243.669098 201.090302,243.669098 
	C201.325348,244.174316 201.560379,244.679550 201.892120,245.592010 
z"/>
<path fill="#D2DD9A" opacity="1.000000" stroke="none" 
	d="
M248.634613,109.106873 
	C252.275772,112.264702 255.450729,115.354683 258.829285,118.711838 
	C251.953156,120.645111 244.873398,122.311211 237.510437,123.688309 
	C237.456726,117.687889 232.348419,113.152260 225.471710,112.961685 
	C233.037262,111.654129 240.602829,110.346581 248.634613,109.106873 
z"/>
<path fill="#EEA069" opacity="1.000000" stroke="none" 
	d="
M283.208801,188.740448 
	C282.187103,187.472122 281.344452,185.950577 280.104492,183.919708 
	C277.654297,181.057175 276.021423,177.643143 273.441254,176.621552 
	C270.275452,175.368057 266.318024,176.108658 262.702393,176.000153 
	C261.713745,175.970505 260.608490,176.276794 259.752777,175.936310 
	C253.688477,173.523300 251.451218,177.094101 249.996521,181.998779 
	C249.166870,183.182892 248.337234,184.367004 247.020447,185.776260 
	C246.533310,186.001404 246.047455,185.984009 246.047455,185.984009 
	C247.958878,180.900223 249.637390,175.707306 251.934601,170.804245 
	C252.561234,169.466766 255.001526,168.382111 256.690826,168.254013 
	C261.316833,167.903152 265.996552,168.310135 270.634766,168.052521 
	C273.826355,167.875244 275.630096,169.222488 276.738007,171.977737 
	C278.951355,177.482224 281.170868,182.984222 283.208801,188.740448 
z"/>
<path fill="#F1718C" opacity="1.000000" stroke="none" 
	d="
M173.960907,150.984390 
	C179.063156,152.829239 184.151978,154.567322 187.800781,159.078262 
	C188.605530,160.073166 190.878006,159.880875 192.802277,160.093658 
	C192.129715,162.094849 191.129471,164.237671 189.608261,166.782547 
	C188.793503,167.988342 188.499710,168.792084 188.205902,169.595825 
	C188.205902,169.595825 188.276566,169.846756 187.817047,169.955841 
	C186.024673,169.914307 184.532578,170.097351 183.388458,169.551300 
	C179.766251,167.822556 176.245193,165.872818 172.741623,163.907608 
	C170.333450,162.556824 168.407928,160.898941 169.668747,157.634979 
	C170.191788,156.280945 170.419205,154.812744 170.781067,153.396454 
	C170.950333,153.054932 171.119598,152.713409 171.760605,152.136871 
	C172.808548,151.596024 173.384720,151.290207 173.960907,150.984390 
z"/>
<path fill="#B3469D" opacity="1.000000" stroke="none" 
	d="
M368.923187,348.250580 
	C371.453247,354.487793 373.983276,360.725006 376.700806,367.424377 
	C373.901489,367.424377 371.949951,367.424377 369.475555,367.424377 
	C368.298615,355.722168 359.303406,361.037598 352.860474,359.720154 
	C351.644806,362.385345 350.510925,364.871155 349.399994,367.306702 
	C347.364838,367.306702 345.445801,367.306702 342.933472,367.306702 
	C343.862823,364.375763 344.647217,361.901947 345.921021,359.381165 
	C349.754761,358.251099 354.086365,359.370789 356.244934,355.018372 
	C356.686432,355.029358 356.860962,355.068237 357.245361,355.339966 
	C358.400391,356.123962 359.292603,356.921783 360.309296,357.140167 
	C360.995422,357.287598 362.068604,356.801727 362.556000,356.240662 
	C362.821899,355.934631 362.228210,354.881836 362.351349,354.091675 
	C363.196777,353.673676 363.712982,353.329803 364.444519,352.767395 
	C366.080963,351.116058 367.502075,349.683319 368.923187,348.250580 
z"/>
<path fill="#F67787" opacity="1.000000" stroke="none" 
	d="
M267.227142,200.004150 
	C270.193024,202.413254 273.158936,204.822342 276.353882,207.417496 
	C277.862030,205.685822 278.998840,204.380493 280.526154,202.626785 
	C281.980164,204.498718 283.222321,206.097916 285.265320,208.728165 
	C286.401550,205.803497 287.231232,203.667892 288.088684,201.130585 
	C290.103027,205.231094 292.089630,209.733322 293.774048,214.651581 
	C291.615692,215.927597 289.658356,217.672668 287.923187,217.474274 
	C283.504639,216.969055 279.189728,215.574783 274.810608,214.643280 
	C274.631958,214.605286 274.222565,215.652115 273.639954,215.963165 
	C271.315186,210.489914 269.271149,205.247040 267.227142,200.004150 
z"/>
<path fill="#F8986E" opacity="1.000000" stroke="none" 
	d="
M306.028564,175.074707 
	C306.028564,172.796356 306.028564,170.517990 306.028564,167.671539 
	C315.334869,168.339920 317.775696,175.631287 320.919495,182.749939 
	C317.994690,186.515167 315.170807,189.590118 312.730011,192.247955 
	C310.622101,191.057770 308.816772,190.038406 307.004150,188.553772 
	C306.674133,183.750580 306.351349,179.412643 306.028564,175.074707 
z"/>
<path fill="#EEEBE8" opacity="1.000000" stroke="none" 
	d="
M261.421814,364.382904 
	C261.132446,369.674255 257.589935,366.656860 255.223633,367.789032 
	C255.223633,356.046997 255.223633,344.834503 255.223633,333.308716 
	C257.047363,333.308716 258.942780,333.308716 261.429749,333.308716 
	C261.429749,343.463837 261.429749,353.704132 261.421814,364.382904 
z"/>
<path fill="#F1718C" opacity="1.000000" stroke="none" 
	d="
M273.920715,216.193527 
	C274.222565,215.652115 274.631958,214.605286 274.810608,214.643280 
	C279.189728,215.574783 283.504639,216.969055 287.923187,217.474274 
	C289.658356,217.672668 291.615692,215.927597 293.839752,215.028580 
	C295.830231,219.058792 297.452820,223.128006 299.077881,227.579865 
	C294.738556,227.579971 290.380890,227.321716 286.061127,226.767731 
	C283.514343,226.441101 281.027710,225.645615 277.835419,224.844025 
	C276.078125,221.815857 274.999420,219.004700 273.920715,216.193527 
z"/>
<path fill="#FA8B76" opacity="1.000000" stroke="none" 
	d="
M210.831406,186.650162 
	C211.442780,184.605545 212.054153,182.560928 213.127274,180.134460 
	C214.041748,179.502640 214.494476,179.252686 215.010101,179.364471 
	C220.628464,184.957855 227.519119,186.564850 234.838760,187.007294 
	C233.542755,190.098358 232.246765,193.189438 230.476776,196.635986 
	C223.363266,194.006042 215.223343,193.802246 210.831406,186.650162 
z"/>
<path fill="#EEA069" opacity="1.000000" stroke="none" 
	d="
M215.727081,175.832336 
	C215.009247,170.814926 216.969223,168.157440 221.532822,168.126999 
	C228.450302,168.080872 235.368317,168.114944 243.252884,168.114944 
	C240.983383,173.297424 239.096924,177.605194 236.609772,181.909515 
	C233.519394,176.666672 228.256622,173.639984 223.430191,174.418365 
	C221.570251,174.718323 219.621475,174.467285 216.829453,174.467285 
	C216.966110,174.298065 216.346603,175.065201 215.727081,175.832336 
z"/>
<path fill="#FA8B76" opacity="1.000000" stroke="none" 
	d="
M307.011414,189.019043 
	C308.816772,190.038406 310.622101,191.057770 312.730011,192.247955 
	C315.170807,189.590118 317.994690,186.515167 320.974579,183.100586 
	C322.449860,186.286789 323.769104,189.812637 325.046997,194.125290 
	C324.994690,195.959549 324.983734,197.007004 324.597656,198.089020 
	C318.730255,200.921646 312.998291,201.533722 307.024994,199.550415 
	C307.015808,195.734344 307.013611,192.376709 307.011414,189.019043 
z"/>
<path fill="#C95397" opacity="1.000000" stroke="none" 
	d="
M324.972778,198.054474 
	C324.983734,197.007004 324.994690,195.959549 325.043091,194.530243 
	C325.396301,195.895508 325.979706,197.641678 325.985840,199.389893 
	C326.040009,214.835373 326.094788,230.282349 325.922699,245.726379 
	C325.854248,251.869553 324.352936,257.732422 320.312103,263.980743 
	C317.842316,258.093597 315.754242,253.116302 313.972778,247.669312 
	C324.761871,242.724731 325.076294,242.275864 324.944611,231.535294 
	C324.952179,227.386475 324.945129,223.697632 324.961090,219.547546 
	C324.977509,215.394150 324.970886,211.702011 324.986328,207.579956 
	C325.009003,205.427658 325.009583,203.705307 325.023132,201.741974 
	C325.036041,201.500992 325.011414,201.018967 325.032776,200.647751 
	C325.027039,199.535843 324.999908,198.795166 324.972778,198.054474 
z"/>
<path fill="#E96592" opacity="1.000000" stroke="none" 
	d="
M324.938049,220.008804 
	C324.945129,223.697632 324.952179,227.386475 324.586853,231.588837 
	C319.386108,235.984787 313.834198,235.141205 308.318817,234.536087 
	C308.318817,234.536087 308.462189,234.441986 308.498779,234.162079 
	C307.938934,232.905319 307.342529,231.928452 306.746124,230.951584 
	C306.576324,230.518356 306.406525,230.085129 306.397125,229.186493 
	C306.765991,228.512497 306.911652,228.266708 306.987122,227.567078 
	C306.988586,225.761551 306.997406,224.372635 307.367676,223.035004 
	C310.770416,224.832382 313.490173,225.060287 316.705627,222.841034 
	C319.005707,221.253555 322.163147,220.908310 324.938049,220.008804 
z"/>
<path fill="#EEA069" opacity="1.000000" stroke="none" 
	d="
M225.033173,112.958710 
	C232.348419,113.152260 237.456726,117.687889 237.120941,123.717415 
	C233.630951,125.409126 230.247253,126.782730 226.483292,128.247711 
	C227.432480,124.179733 223.915710,122.557449 221.678528,120.545235 
	C219.913528,118.957718 217.454391,118.141945 214.922485,116.921234 
	C217.892487,115.557953 221.243576,114.256844 225.033173,112.958710 
z"/>
<path fill="#E96592" opacity="1.000000" stroke="none" 
	d="
M252.003662,223.990570 
	C247.560593,222.125931 243.232193,219.860580 238.632202,218.544266 
	C235.791977,217.731522 235.098938,216.311920 235.043152,213.551208 
	C235.792130,211.265610 236.548645,209.304153 237.860916,207.335785 
	C239.855881,209.401459 241.108749,211.537155 244.390976,210.229828 
	C245.367599,209.840866 246.867111,210.789688 248.133652,211.098404 
	C250.793152,211.746613 253.457031,212.376816 256.128235,213.392929 
	C254.759445,217.177811 253.381561,220.584183 252.003662,223.990570 
z"/>
<path fill="#F8986E" opacity="1.000000" stroke="none" 
	d="
M215.402176,175.925781 
	C216.346603,175.065201 216.966110,174.298065 216.829453,174.467285 
	C219.621475,174.467285 221.570251,174.718323 223.430191,174.418365 
	C228.256622,173.639984 233.519394,176.666672 236.352509,182.111969 
	C236.695923,182.317871 236.734146,182.636002 236.276627,182.965973 
	C235.592468,184.310394 235.365829,185.324844 235.139191,186.339294 
	C235.139191,186.339294 235.114243,186.729462 234.976501,186.868378 
	C227.519119,186.564850 220.628464,184.957855 214.943192,178.907806 
	C214.731079,177.792923 214.648773,177.496475 214.566467,177.200012 
	C214.736725,176.806412 214.906982,176.412811 215.402176,175.925781 
z"/>
<path fill="#F67787" opacity="1.000000" stroke="none" 
	d="
M210.555389,186.882629 
	C215.223343,193.802246 223.363266,194.006042 230.379364,196.992157 
	C229.454712,200.222458 228.153442,203.452057 226.520752,206.579834 
	C219.839813,203.338715 213.490295,200.199417 207.053589,196.991180 
	C206.966400,196.922211 206.766876,196.824112 206.766876,196.824112 
	C207.937714,193.587784 209.108536,190.351456 210.555389,186.882629 
z"/>
<path fill="#8D38AF" opacity="1.000000" stroke="none" 
	d="
M236.030594,261.008850 
	C236.030594,261.008850 236.419266,260.981262 236.613678,260.970062 
	C236.448563,265.871429 233.934906,267.801422 228.940094,267.425049 
	C223.879562,267.043762 218.767914,267.340912 213.120789,267.340912 
	C215.717621,260.657104 218.087128,254.558426 220.712372,248.225159 
	C220.968109,247.990570 221.062866,248.464432 221.210083,249.076370 
	C221.555679,251.152618 222.291687,252.808945 221.850281,254.044724 
	C220.594421,257.560699 222.059067,259.026672 225.239761,259.578979 
	C227.564957,259.982727 229.223862,260.720001 229.220093,263.639221 
	C229.219360,264.203674 232.165878,265.594147 232.864624,265.163269 
	C234.247879,264.310211 235.011078,262.451721 236.030594,261.008850 
z"/>
<path fill="#E36990" opacity="1.000000" stroke="none" 
	d="
M170.477722,153.589066 
	C170.419205,154.812744 170.191788,156.280945 169.668747,157.634979 
	C168.407928,160.898941 170.333450,162.556824 172.741623,163.907608 
	C176.245193,165.872818 179.766251,167.822556 183.388458,169.551300 
	C184.532578,170.097351 186.024673,169.914307 187.708817,170.028488 
	C186.777786,172.827011 185.495438,175.661957 183.817291,178.976074 
	C181.811005,181.718292 180.560547,180.957794 179.377930,179.015884 
	C177.724014,176.300034 176.020523,173.614410 174.338242,170.915863 
	C174.338242,170.915863 174.086716,170.692474 174.039688,170.539642 
	C173.992661,170.386810 173.970459,170.502502 173.970459,170.502502 
	C171.297272,168.445541 168.624084,166.388580 165.230423,163.777222 
	C166.616516,160.974854 168.395447,157.378265 170.477722,153.589066 
z"/>
<path fill="#F67787" opacity="1.000000" stroke="none" 
	d="
M256.119110,213.014420 
	C253.457031,212.376816 250.793152,211.746613 248.133652,211.098404 
	C246.867111,210.789688 245.367599,209.840866 244.390976,210.229828 
	C241.108749,211.537155 239.855881,209.401459 238.134064,207.127686 
	C237.881790,206.470093 237.912155,206.013718 238.467987,205.178268 
	C239.626801,202.836197 240.260178,200.873184 240.893555,198.910187 
	C240.893570,198.910187 240.876663,198.877640 240.875458,198.858414 
	C245.864960,200.484589 250.631821,202.859116 256.075989,203.025879 
	C256.952515,203.052734 257.778534,204.728134 258.875732,206.194229 
	C258.499756,207.865799 257.875916,208.984604 256.942078,210.306488 
	C256.496887,211.219711 256.361664,211.929840 256.258911,212.750595 
	C256.291412,212.861206 256.119110,213.014420 256.119110,213.014420 
z"/>
<path fill="#C54BA0" opacity="1.000000" stroke="none" 
	d="
M341.266541,256.714691 
	C337.699615,257.119232 335.000061,256.637268 334.718872,252.241684 
	C334.622437,250.734161 333.013519,249.323395 332.065857,247.507629 
	C332.685699,243.688995 333.335236,240.231155 334.147552,236.414001 
	C335.373749,238.579437 336.437134,241.104172 337.661774,244.011688 
	C339.172302,242.993164 340.359650,242.192581 340.475189,242.114670 
	C343.473206,242.114670 345.376953,242.114670 347.585205,242.059479 
	C345.743011,246.812225 343.596344,251.620163 341.266541,256.714691 
z"/>
<path fill="#3A79C7" opacity="1.000000" stroke="none" 
	d="
M191.897018,222.693726 
	C190.835648,223.485962 189.789688,224.072388 188.667130,224.367401 
	C184.350647,225.501816 180.015808,226.568817 175.674072,227.603317 
	C174.339890,227.921204 172.961853,228.055038 171.289078,228.142365 
	C169.827652,225.547455 168.681046,223.083344 167.477112,220.280975 
	C173.056091,218.568726 179.309952,220.248260 184.498383,216.290375 
	C185.277939,215.695694 187.290298,216.717117 189.153259,217.057220 
	C190.341827,218.867035 191.109543,220.610565 191.897018,222.693726 
z"/>
<path fill="#4F50BA" opacity="1.000000" stroke="none" 
	d="
M174.277710,279.212830 
	C176.757614,276.994080 179.399231,275.111603 181.975510,273.143646 
	C183.339996,272.101379 184.590927,270.910492 185.944641,269.440460 
	C188.789383,270.928467 191.582581,272.762695 194.588959,274.846375 
	C190.888275,278.895813 186.974411,282.695831 182.982117,286.858459 
	C180.073212,284.651917 177.242752,282.082764 174.277710,279.212830 
z"/>
<path fill="#C54BA0" opacity="1.000000" stroke="none" 
	d="
M200.341812,228.034302 
	C199.647049,226.571762 198.952301,225.109238 198.477005,223.146393 
	C201.509918,219.406921 204.152435,220.048599 206.998718,222.750641 
	C208.100021,223.796143 209.810257,224.931900 211.160919,224.838501 
	C214.494278,224.608017 215.766983,226.607056 216.986465,228.987244 
	C216.565689,230.219269 216.144913,231.451294 215.248688,233.173721 
	C214.049530,234.458710 213.325836,235.253281 213.164032,235.430939 
	C208.753998,233.434982 204.937195,231.707504 201.120392,229.980042 
	C201.120392,229.980042 200.963257,229.564178 200.923370,229.128571 
	C200.779022,228.410812 200.598480,228.191254 200.341812,228.034302 
z"/>
<path fill="#E36990" opacity="1.000000" stroke="none" 
	d="
M224.897156,209.009750 
	C224.384933,210.822617 223.872711,212.635483 222.802231,214.888596 
	C217.799774,216.293350 205.314850,210.230591 202.972504,205.970490 
	C204.046036,203.045303 205.119568,200.120117 206.479996,197.009521 
	C206.766876,196.824112 206.966400,196.922211 207.006561,197.401764 
	C207.573776,199.816116 207.495911,202.442413 208.753265,203.542389 
	C211.403137,205.860519 214.740051,207.400146 217.818863,209.218903 
	C220.203644,210.627640 222.607071,211.399536 224.897156,209.009750 
z"/>
<path fill="#DB5798" opacity="1.000000" stroke="none" 
	d="
M308.265472,234.782669 
	C313.834198,235.141205 319.386108,235.984787 324.572205,232.048828 
	C325.076294,242.275864 324.761871,242.724731 313.867554,247.310837 
	C313.455658,247.422043 313.479126,247.382690 313.600616,247.005493 
	C312.582825,244.429291 311.443542,242.230255 310.304260,240.031219 
	C310.242096,239.812363 310.179962,239.593521 310.075806,238.696747 
	C309.541504,237.333496 309.049286,236.648148 308.557068,235.962799 
	C308.442108,235.651611 308.327118,235.340424 308.265472,234.782669 
z"/>
<path fill="#C95397" opacity="1.000000" stroke="none" 
	d="
M217.196259,228.698547 
	C215.766983,226.607056 214.494278,224.608017 211.160919,224.838501 
	C209.810257,224.931900 208.100021,223.796143 206.998718,222.750641 
	C204.152435,220.048599 201.509918,219.406921 198.408661,222.805328 
	C198.478485,220.104507 198.836105,217.244431 199.764679,214.257660 
	C206.908417,216.754623 213.481201,219.378296 220.054001,222.001984 
	C220.173630,222.319687 220.120026,222.604828 219.396881,223.073486 
	C218.624023,223.598053 218.347443,223.906525 218.070862,224.215012 
	C217.849258,225.613297 217.627655,227.011566 217.196259,228.698547 
z"/>
<path fill="#B3469D" opacity="1.000000" stroke="none" 
	d="
M388.861053,360.822021 
	C388.861053,362.921417 388.861053,365.020782 388.861053,367.292297 
	C386.689301,367.292297 384.817444,367.292297 382.397522,367.292297 
	C382.397522,359.604340 382.397522,352.232849 382.830566,344.572571 
	C384.121582,346.393311 384.699371,348.850403 387.938263,348.490540 
	C388.260803,352.904968 388.560944,356.863495 388.861053,360.822021 
z"/>
<path fill="#F1718C" opacity="1.000000" stroke="none" 
	d="
M224.993134,208.833282 
	C222.607071,211.399536 220.203644,210.627640 217.818863,209.218903 
	C214.740051,207.400146 211.403137,205.860519 208.753265,203.542389 
	C207.495911,202.442413 207.573776,199.816116 207.093750,197.470718 
	C213.490295,200.199417 219.839813,203.338715 226.310364,206.851334 
	C226.431366,207.224670 226.394348,207.199753 226.086182,207.272888 
	C225.547913,207.649033 225.317780,207.952042 225.087646,208.255051 
	C225.087646,208.255051 225.089111,208.656815 224.993134,208.833282 
z"/>
<path fill="#DB5798" opacity="1.000000" stroke="none" 
	d="
M220.281281,221.739426 
	C213.481201,219.378296 206.908417,216.754623 199.972778,213.977661 
	C200.601059,211.399200 201.592163,208.974030 202.777878,206.259674 
	C205.314850,210.230591 217.799774,216.293350 222.581177,215.169037 
	C222.115082,217.165100 221.311813,219.320984 220.281281,221.739426 
z"/>
<path fill="#E96592" opacity="1.000000" stroke="none" 
	d="
M243.334412,130.664001 
	C244.348831,130.810440 245.233124,130.892288 246.386703,131.227509 
	C245.471222,134.722214 248.262833,138.013458 253.042709,139.010635 
	C257.426208,139.333969 261.809692,139.657318 266.666870,140.015198 
	C259.637878,140.643997 252.135284,141.238235 243.837219,141.886765 
	C237.931976,141.846176 236.606232,137.867813 235.036011,134.140350 
	C237.145523,133.107468 239.255051,132.074600 241.806458,131.165863 
	C242.501755,131.131393 242.755142,130.972748 243.008545,130.814117 
	C243.008545,130.814117 243.204285,130.599411 243.334412,130.664001 
z"/>
<path fill="#B3469D" opacity="1.000000" stroke="none" 
	d="
M220.546402,150.957031 
	C213.200287,156.510498 205.854172,162.063965 199.413483,166.932953 
	C201.993835,159.771851 207.710464,153.309525 214.854340,147.808746 
	C216.995422,148.969086 218.770905,149.963058 220.546402,150.957031 
z"/>
<path fill="#B3469D" opacity="1.000000" stroke="none" 
	d="
M201.093445,230.349274 
	C204.937195,231.707504 208.753998,233.434982 213.164032,235.430939 
	C213.325836,235.253281 214.049530,234.458710 214.951935,233.444397 
	C213.340469,237.930206 211.550293,242.635757 209.760117,247.341309 
	C209.342606,247.377777 208.925079,247.414246 208.507568,247.450714 
	C206.027222,241.873322 203.546860,236.295914 201.093445,230.349274 
z"/>
<path fill="#C95397" opacity="1.000000" stroke="none" 
	d="
M220.827484,150.698212 
	C218.770905,149.963058 216.995422,148.969086 215.143387,147.670044 
	C215.066849,147.364960 215.101929,147.151276 215.472458,147.061554 
	C216.259659,146.422256 216.676346,145.872696 217.093033,145.323135 
	C220.485123,142.891266 223.877213,140.459396 227.592941,138.286530 
	C225.634598,142.332153 230.224854,143.222122 230.949615,145.741379 
	C227.669266,147.307373 224.388916,148.873367 220.827484,150.698212 
z"/>
<path fill="#C95397" opacity="1.000000" stroke="none" 
	d="
M355.977966,355.046265 
	C354.086365,359.370789 349.754761,358.251099 346.184967,359.135834 
	C348.065277,353.682007 350.171021,348.426605 352.749237,343.209351 
	C354.762512,343.818146 356.303314,344.388794 357.852600,345.261200 
	C357.612640,346.079376 357.364166,346.595825 356.849548,347.285034 
	C356.416626,347.845917 356.249817,348.234039 356.235046,348.921448 
	C356.250732,351.162567 356.114349,353.104431 355.977966,355.046265 
z"/>
<path fill="#DB5798" opacity="1.000000" stroke="none" 
	d="
M231.333405,145.679077 
	C230.224854,143.222122 225.634598,142.332153 227.932312,138.190857 
	C230.078812,136.614365 232.209579,135.392532 234.688171,134.155518 
	C236.606232,137.867813 237.931976,141.846176 243.407227,141.946442 
	C241.433075,142.629700 239.093460,143.307556 236.244934,143.986420 
	C235.736008,143.987396 235.262024,144.126678 235.262024,144.126678 
	C234.080414,144.623383 232.898819,145.120071 231.333405,145.679077 
z"/>
<path fill="#E36990" opacity="1.000000" stroke="none" 
	d="
M357.844116,344.959473 
	C356.303314,344.388794 354.762512,343.818146 353.010864,342.959961 
	C353.830811,339.918549 354.315063,336.715057 356.082245,334.566986 
	C357.285583,333.104279 360.284088,333.118439 362.521942,332.459839 
	C363.529724,334.841248 364.233795,336.504913 364.759644,338.810669 
	C362.966156,340.359833 361.350861,341.266937 359.510193,342.354706 
	C358.804565,343.343414 358.324341,344.151428 357.844116,344.959473 
z"/>
<path fill="#DB5798" opacity="1.000000" stroke="none" 
	d="
M387.915863,348.034637 
	C384.699371,348.850403 384.121582,346.393311 382.982971,344.126892 
	C382.622162,341.285919 382.541992,338.601807 382.700134,335.479095 
	C382.938416,335.040497 383.198639,334.964050 383.596527,334.980957 
	C386.952698,334.858734 388.104401,336.377075 388.009430,339.210297 
	C387.910889,342.149475 387.941650,345.093018 387.915863,348.034637 
z"/>
<path fill="#C95397" opacity="1.000000" stroke="none" 
	d="
M359.735565,342.174042 
	C361.350861,341.266937 362.966156,340.359833 364.815308,339.184387 
	C366.292908,341.782623 367.536682,344.649261 368.851807,347.883240 
	C367.502075,349.683319 366.080963,351.116058 364.279449,352.431274 
	C362.511230,348.933838 361.123413,345.553955 359.735565,342.174042 
z"/>
<path fill="#F3847F" opacity="1.000000" stroke="none" 
	d="
M307.006226,222.983734 
	C306.997406,224.372635 306.988586,225.761551 306.732910,227.246552 
	C306.292633,217.318970 306.099152,207.295273 305.905701,197.271591 
	C305.879913,190.173157 305.854126,183.074707 305.928467,175.525482 
	C306.351349,179.412643 306.674133,183.750580 307.004150,188.553787 
	C307.013611,192.376709 307.015808,195.734344 307.016907,200.003387 
	C307.018829,203.942200 307.021851,206.969620 307.016113,210.460388 
	C307.006989,214.943726 307.006592,218.963730 307.006226,222.983734 
z"/>
<path fill="#C95397" opacity="1.000000" stroke="none" 
	d="
M174.404297,171.269974 
	C176.020523,173.614410 177.724014,176.300034 179.377930,179.015884 
	C180.560547,180.957794 181.811005,181.718292 183.670685,179.240448 
	C183.402252,181.884232 182.884644,184.742798 182.367035,187.601364 
	C182.013916,187.615128 181.660797,187.628876 181.307693,187.642639 
	C179.028580,182.303116 176.749466,176.963608 174.404297,171.269974 
z"/>
<path fill="#E36990" opacity="1.000000" stroke="none" 
	d="
M387.938263,348.490540 
	C387.941650,345.093018 387.910889,342.149475 388.009430,339.210297 
	C388.104401,336.377075 386.952698,334.858734 383.557312,334.709839 
	C383.089630,334.058472 383.059052,333.695221 383.028442,333.331940 
	C384.825104,333.197723 386.621735,333.063507 388.967560,332.888245 
	C388.967560,342.090271 388.967560,351.008362 388.914307,360.374268 
	C388.560944,356.863495 388.260803,352.904968 387.938263,348.490540 
z"/>
<path fill="#C95397" opacity="1.000000" stroke="none" 
	d="
M305.790283,197.623901 
	C306.099152,207.295273 306.292633,217.318970 306.740295,227.663177 
	C306.911652,228.266708 306.765991,228.512497 306.372620,228.832062 
	C306.016754,218.620804 305.845825,208.298508 305.790283,197.623901 
z"/>
<path fill="#F3847F" opacity="1.000000" stroke="none" 
	d="
M331.078186,152.526184 
	C328.811554,150.775803 326.462036,148.702576 324.099487,146.281494 
	C326.389404,148.023529 328.692383,150.113449 331.078186,152.526184 
z"/>
<path fill="#C95397" opacity="1.000000" stroke="none" 
	d="
M310.294861,240.373138 
	C311.443542,242.230255 312.582825,244.429291 313.596436,246.983307 
	C312.408997,245.130554 311.347260,242.922806 310.294861,240.373138 
z"/>
<path fill="#F3847F" opacity="1.000000" stroke="none" 
	d="
M240.623260,199.108398 
	C240.260178,200.873184 239.626801,202.836197 238.665115,204.896393 
	C239.008850,203.097900 239.680908,201.202255 240.623260,199.108398 
z"/>
<path fill="#E36990" opacity="1.000000" stroke="none" 
	d="
M174.019196,150.622635 
	C173.384720,151.290207 172.808548,151.596024 171.996979,151.970749 
	C172.586578,150.608093 173.411575,149.176514 174.524048,147.586761 
	C174.566864,148.372665 174.322189,149.316772 174.019196,150.622635 
z"/>
<path fill="#8D38AF" opacity="1.000000" stroke="none" 
	d="
M241.511734,286.179810 
	C240.163147,286.406158 238.403854,286.551666 236.370178,286.493652 
	C237.764206,286.226440 239.432617,286.162720 241.511734,286.179810 
z"/>
<path fill="#C95397" opacity="1.000000" stroke="none" 
	d="
M306.721375,231.236649 
	C307.342529,231.928452 307.938934,232.905319 308.413361,234.169769 
	C307.759827,233.478806 307.228241,232.500259 306.721375,231.236649 
z"/>
<path fill="#F3847F" opacity="1.000000" stroke="none" 
	d="
M245.902069,186.270111 
	C246.047455,185.984009 246.533310,186.001404 246.776031,186.018387 
	C246.531281,186.972794 246.043793,187.910217 245.207077,188.873627 
	C245.157471,188.118484 245.457092,187.337357 245.902069,186.270111 
z"/>
<path fill="#E36990" opacity="1.000000" stroke="none" 
	d="
M188.484528,169.429504 
	C188.499710,168.792084 188.793503,167.988342 189.416748,167.082413 
	C189.418503,167.741211 189.090820,168.502213 188.484528,169.429504 
z"/>
<path fill="#B3469D" opacity="1.000000" stroke="none" 
	d="
M216.857513,145.432510 
	C216.676346,145.872696 216.259659,146.422256 215.578979,147.042206 
	C215.750641,146.589020 216.186310,146.065460 216.857513,145.432510 
z"/>
<path fill="#EEA069" opacity="1.000000" stroke="none" 
	d="
M235.445770,186.103271 
	C235.365829,185.324844 235.592468,184.310394 236.171661,183.087006 
	C236.266937,183.874466 236.009644,184.870850 235.445770,186.103271 
z"/>
<path fill="#EEA069" opacity="1.000000" stroke="none" 
	d="
M214.330002,177.415497 
	C214.648773,177.496475 214.731079,177.792923 214.880295,178.546051 
	C214.494476,179.252686 214.041748,179.502640 213.351135,179.852875 
	C213.440018,179.179077 213.766785,178.405029 214.330002,177.415497 
z"/>
<path fill="#4F50BA" opacity="1.000000" stroke="none" 
	d="
M184.790283,267.744751 
	C184.289078,267.566833 183.686142,267.129211 183.030762,266.393005 
	C183.548370,266.557953 184.118454,267.021515 184.790283,267.744751 
z"/>
<path fill="#C95397" opacity="1.000000" stroke="none" 
	d="
M308.542847,236.297821 
	C309.049286,236.648148 309.541504,237.333496 310.066711,238.355621 
	C309.575958,238.005905 309.052307,237.319382 308.542847,236.297821 
z"/>
<path fill="#F3847F" opacity="1.000000" stroke="none" 
	d="
M347.887939,181.698456 
	C347.832825,181.997467 347.433105,181.999405 347.234009,181.999817 
	C347.029724,181.541000 347.024597,181.081787 347.045593,180.279175 
	C347.362183,180.423660 347.652618,180.911545 347.887939,181.698456 
z"/>
<path fill="#B3469D" opacity="1.000000" stroke="none" 
	d="
M281.441162,246.464249 
	C281.632294,246.249023 282.079376,246.182404 282.667297,246.225021 
	C282.437775,246.427124 282.067444,246.519989 281.441162,246.464249 
z"/>
<path fill="#F1718C" opacity="1.000000" stroke="none" 
	d="
M300.121948,229.640747 
	C299.792877,229.474701 299.446075,229.007828 299.077484,228.233063 
	C299.405182,228.396774 299.754700,228.868347 300.121948,229.640747 
z"/>
<path fill="#B3469D" opacity="1.000000" stroke="none" 
	d="
M382.775940,333.425568 
	C383.059052,333.695221 383.089630,334.058472 383.159424,334.692902 
	C383.198639,334.964050 382.938416,335.040497 382.802917,335.044189 
	C382.619415,334.538330 382.571411,334.028748 382.775940,333.425568 
z"/>
<path fill="#F3847F" opacity="1.000000" stroke="none" 
	d="
M287.694061,128.862778 
	C287.575348,128.899734 287.362427,128.737823 287.069580,128.363464 
	C287.193268,128.326141 287.396667,128.497116 287.694061,128.862778 
z"/>
<path fill="#F3847F" opacity="1.000000" stroke="none" 
	d="
M330.025024,189.263657 
	C330.450928,189.138229 330.588348,189.377533 330.380951,189.837982 
	C330.167419,189.806839 330.067566,189.663254 330.025024,189.263657 
z"/>
<path fill="#F67787" opacity="1.000000" stroke="none" 
	d="
M225.372711,208.173126 
	C225.317780,207.952042 225.547913,207.649033 226.065826,207.281036 
	C226.121674,207.507767 225.889725,207.799500 225.372711,208.173126 
z"/>
<path fill="#C95397" opacity="1.000000" stroke="none" 
	d="
M174.004883,170.436981 
	C173.970459,170.502502 173.992661,170.386810 174.021637,170.372406 
	C174.050598,170.357986 174.039322,170.371460 174.004883,170.436981 
z"/>
<path fill="#DB5798" opacity="1.000000" stroke="none" 
	d="
M218.377167,224.117935 
	C218.347443,223.906525 218.624023,223.598053 219.205261,223.195923 
	C219.234436,223.408493 218.958969,223.714676 218.377167,224.117935 
z"/>
<path fill="#B3469D" opacity="1.000000" stroke="none" 
	d="
M200.306366,228.269577 
	C200.598480,228.191254 200.779022,228.410812 200.921692,228.906281 
	C200.626709,229.030731 200.397049,228.825806 200.306366,228.269577 
z"/>
<path fill="#F3847F" opacity="1.000000" stroke="none" 
	d="
M203.400085,147.141830 
	C203.322128,146.926834 203.506287,146.616058 203.951431,146.207458 
	C204.029007,146.421783 203.845612,146.733902 203.400085,147.141830 
z"/>
<path fill="#F3847F" opacity="1.000000" stroke="none" 
	d="
M242.749146,130.773865 
	C242.755142,130.972748 242.501755,131.131393 242.141037,131.141846 
	C242.185715,130.906998 242.337723,130.820297 242.749146,130.773865 
z"/>
<path fill="#C54BA0" opacity="1.000000" stroke="none" 
	d="
M334.788239,232.090912 
	C334.968231,232.233536 334.901184,232.458527 334.627289,232.781586 
	C334.298401,232.626022 334.338623,232.390564 334.788239,232.090912 
z"/>
<path fill="#5940B4" opacity="1.000000" stroke="none" 
	d="
M201.174774,243.592529 
	C201.090302,243.669098 201.001740,243.362274 200.979141,243.285446 
	C200.956543,243.208618 201.259247,243.515945 201.174774,243.592529 
z"/>
<path fill="#C95397" opacity="1.000000" stroke="none" 
	d="
M235.388733,144.188721 
	C235.262024,144.126678 235.736008,143.987396 235.860184,143.993286 
	C235.888275,144.195435 235.731964,144.279312 235.388733,144.188721 
z"/>
<path fill="#F3847F" opacity="1.000000" stroke="none" 
	d="
M204.376572,146.122040 
	C204.308655,145.904068 204.509613,145.597900 204.972809,145.193665 
	C205.038528,145.408340 204.841995,145.721085 204.376572,146.122040 
z"/>
<path fill="#4761C1" opacity="1.000000" stroke="none" 
	d="
M168.279861,248.646881 
	C168.204041,248.754929 168.022079,248.412903 167.994797,248.319305 
	C168.174606,248.234131 168.304001,248.338501 168.279861,248.646881 
z"/>
<path fill="#C54BA0" opacity="1.000000" stroke="none" 
	d="
M262.758423,280.948242 
	C262.769775,281.109558 262.525635,281.260925 262.164612,281.291748 
	C262.199463,281.093597 262.351196,281.015961 262.758423,280.948242 
z"/>
<path fill="#F3847F" opacity="1.000000" stroke="none" 
	d="
M324.010254,145.673172 
	C323.741058,145.849762 323.470367,145.665619 323.157440,145.163086 
	C323.349548,145.093933 323.647400,145.249847 324.010254,145.673172 
z"/>
<path fill="#4F50BA" opacity="1.000000" stroke="none" 
	d="
M173.405396,278.160645 
	C173.572388,278.112122 173.735214,278.282837 173.953369,278.637268 
	C173.760086,278.749512 173.557587,278.602478 173.405396,278.160645 
z"/>
<path fill="#000000" opacity="1.000000" stroke="none" 
	d="
M257.252075,210.103409 
	C257.875916,208.984604 258.499756,207.865799 259.166718,206.415466 
	C260.190613,203.750351 261.000641,201.321518 262.226227,199.124512 
	C262.813324,198.072113 264.187225,197.458633 265.475525,197.199783 
	C266.132446,198.238251 266.518616,198.723312 266.904785,199.208389 
	C266.904785,199.208389 266.966431,199.646484 267.096802,199.825317 
	C269.271149,205.247040 271.315186,210.489914 273.639954,215.963165 
	C274.999420,219.004700 276.078125,221.815857 277.391266,224.875305 
	C277.623962,225.439087 277.499207,225.694534 276.774963,226.018829 
	C275.826599,226.200684 275.354706,226.253601 274.882812,226.306519 
	C268.343414,226.238174 261.802094,226.234238 255.266495,226.038605 
	C254.167908,226.005722 253.094131,225.143799 252.006271,224.327759 
	C253.381561,220.584183 254.759445,217.177811 256.128235,213.392929 
	C256.119110,213.014420 256.291412,212.861206 256.529297,212.514542 
	C256.928802,211.479721 257.090424,210.791565 257.252075,210.103409 
z"/>
<path fill="#C95397" opacity="1.000000" stroke="none" 
	d="
M264.332397,244.945694 
	C254.285080,242.746918 244.541748,240.547592 234.836121,238.192764 
	C232.549347,237.637924 230.389725,236.558914 228.085846,235.351868 
	C229.991287,234.154022 232.068466,232.479767 233.955917,232.671646 
	C237.960281,233.078751 241.948959,234.209259 245.792969,235.494980 
	C252.068604,237.594025 258.237274,240.019180 264.393280,242.452927 
	C264.744904,242.591919 264.576538,244.046204 264.332397,244.945694 
z"/>
<path fill="#E36990" opacity="1.000000" stroke="none" 
	d="
M274.545593,226.521637 
	C275.354706,226.253601 275.826599,226.200684 276.651794,226.200439 
	C275.631592,226.835052 274.272461,227.875778 272.882050,227.919449 
	C266.905884,228.107147 260.920471,228.001846 254.470001,228.006073 
	C253.841858,227.972916 253.546219,227.942978 253.544342,227.900101 
	C253.531479,227.607864 253.577911,227.055557 253.609772,227.055252 
	C258.356750,227.008820 263.104370,227.026794 267.851440,226.982803 
	C269.971008,226.963165 272.089447,226.822479 274.545593,226.521637 
z"/>
<path fill="#000000" opacity="1.000000" stroke="none" 
	d="
M235.471191,339.772278 
	C237.229492,341.647705 239.740494,343.524567 239.571594,345.117249 
	C239.387344,346.854736 236.982697,349.040375 235.071609,349.745880 
	C232.413925,350.727081 229.315033,350.513123 226.054474,350.846619 
	C226.054474,346.846405 226.054474,343.468384 226.054474,339.648499 
	C229.143143,339.648499 232.093124,339.648499 235.471191,339.772278 
z"/>
<path fill="#F67787" opacity="1.000000" stroke="none" 
	d="
M266.888611,198.875122 
	C266.518616,198.723312 266.132446,198.238251 265.710297,197.429810 
	C266.073730,197.584900 266.473083,198.063385 266.888611,198.875122 
z"/>
<path fill="#F67787" opacity="1.000000" stroke="none" 
	d="
M253.506683,139.010834 
	C248.262833,138.013458 245.471222,134.722214 246.831253,131.225739 
	C250.916687,129.980515 254.782440,128.699005 258.751343,128.094116 
	C261.828705,127.625107 265.054535,128.224792 268.179382,127.950638 
	C273.038147,127.524338 276.833954,128.358749 278.968475,133.506378 
	C279.674408,135.208786 282.044922,136.220932 285.101440,138.742493 
	C281.952393,139.426163 280.060944,140.231094 278.196228,140.173370 
	C270.116791,139.923340 262.045135,139.421371 253.506683,139.010834 
z"/>
<path fill="#9F3AAD" opacity="1.000000" stroke="none" 
	d="
M236.060394,260.659790 
	C235.011078,262.451721 234.247879,264.310211 232.864624,265.163269 
	C232.165878,265.594147 229.219360,264.203674 229.220093,263.639221 
	C229.223862,260.720001 227.564957,259.982727 225.239761,259.578979 
	C222.059067,259.026672 220.594421,257.560699 221.850281,254.044724 
	C222.291687,252.808945 221.555679,251.152618 221.253235,249.314102 
	C223.218002,249.245239 225.374466,249.285767 227.330002,249.933228 
	C229.149460,250.535645 230.750595,251.792160 232.455399,252.747269 
	C235.440506,254.419678 237.559280,256.501068 236.060394,260.659790 
z"/>
<path fill="#E96592" opacity="1.000000" stroke="none" 
	d="
M336.035400,217.290497 
	C336.701050,212.363556 343.117126,208.168182 349.087677,209.135437 
	C354.934265,210.082642 350.727631,215.127335 352.017151,218.473480 
	C348.872711,220.886398 346.158203,223.098465 341.680298,222.254959 
	C338.427856,221.642319 336.610107,220.900497 336.035400,217.290497 
z"/>
<path fill="#F8986E" opacity="1.000000" stroke="none" 
	d="
M250.157776,182.308228 
	C251.451218,177.094101 253.688477,173.523300 259.752777,175.936310 
	C260.608490,176.276794 261.713745,175.970505 262.702393,176.000153 
	C266.318024,176.108658 270.275452,175.368057 273.441254,176.621552 
	C276.021423,177.643143 277.654297,181.057175 279.856750,183.700150 
	C277.295837,184.276276 274.590820,184.640152 271.873657,184.832657 
	C266.470459,185.215424 261.053925,185.793396 255.657242,185.668762 
	C253.855316,185.627136 252.097183,183.688919 250.157776,182.308228 
z"/>
<path fill="#000000" opacity="1.000000" stroke="none" 
	d="
M359.510193,342.354706 
	C361.123413,345.553955 362.511230,348.933838 364.064117,352.649841 
	C363.712982,353.329803 363.196777,353.673676 361.980682,354.026337 
	C359.865723,354.392456 358.450623,354.749786 357.035522,355.107147 
	C356.860962,355.068237 356.686432,355.029358 356.244934,355.018372 
	C356.114349,353.104431 356.250732,351.162567 356.509460,348.747620 
	C356.793121,347.887085 356.954407,347.499664 357.115662,347.112244 
	C357.364166,346.595825 357.612640,346.079376 357.852600,345.261230 
	C358.324341,344.151428 358.804565,343.343414 359.510193,342.354706 
z"/>
<path fill="#C95397" opacity="1.000000" stroke="none" 
	d="
M357.245361,355.339966 
	C358.450623,354.749786 359.865723,354.392456 361.651489,354.100464 
	C362.228210,354.881836 362.821899,355.934631 362.556000,356.240662 
	C362.068604,356.801727 360.995422,357.287598 360.309296,357.140167 
	C359.292603,356.921783 358.400391,356.123962 357.245361,355.339966 
z"/>
<path fill="#F67787" opacity="1.000000" stroke="none" 
	d="
M307.024841,209.997040 
	C307.021851,206.969620 307.018829,203.942200 307.023865,200.461823 
	C312.998291,201.533722 318.730255,200.921646 324.597656,198.089020 
	C324.999908,198.795166 325.027039,199.535843 324.878784,200.735077 
	C324.805664,201.456726 324.907928,201.719849 325.010193,201.982956 
	C325.009583,203.705307 325.009003,205.427658 324.642487,207.650467 
	C322.330505,209.440964 320.391876,210.742416 318.436829,212.018738 
	C314.005829,214.911438 310.826599,210.687073 307.024841,209.997040 
z"/>
<path fill="#F1718C" opacity="1.000000" stroke="none" 
	d="
M307.016113,210.460388 
	C310.826599,210.687073 314.005829,214.911438 318.436829,212.018738 
	C320.391876,210.742416 322.330505,209.440964 324.620422,208.080414 
	C324.970886,211.702011 324.977509,215.394150 324.961090,219.547546 
	C322.163147,220.908310 319.005707,221.253555 316.705627,222.841034 
	C313.490173,225.060287 310.770416,224.832382 307.367676,223.035004 
	C307.006592,218.963730 307.006989,214.943726 307.016113,210.460388 
z"/>
<path fill="#F1718C" opacity="1.000000" stroke="none" 
	d="
M325.023132,201.741974 
	C324.907928,201.719849 324.805664,201.456726 324.857422,201.106293 
	C325.011414,201.018967 325.036041,201.500992 325.023132,201.741974 
z"/>
<path fill="#E96592" opacity="1.000000" stroke="none" 
	d="
M256.942078,210.306488 
	C257.090424,210.791565 256.928802,211.479721 256.496765,212.403931 
	C256.361664,211.929840 256.496887,211.219711 256.942078,210.306488 
z"/>
<path fill="#E36990" opacity="1.000000" stroke="none" 
	d="
M356.849548,347.285034 
	C356.954407,347.499664 356.793121,347.887085 356.357422,348.448364 
	C356.249817,348.234039 356.416626,347.845917 356.849548,347.285034 
z"/>
</svg>